<?xml version="1.0" encoding="UTF-8"?>
<svg id="Layer_2" data-name="Layer 2" xmlns="http://www.w3.org/2000/svg" viewBox="0 0 500.00008 124.0342">
  <defs>
    <style>
      .cls-1 {
        fill: #373826;
        stroke-width: 0px;
      }
    </style>
  </defs>
  <g id="Layer_1-2" data-name="Layer 1">
    <g>
      <path class="cls-1" d="M57.34767,94.86916c0,13.92725-4.75171,17.85962-12.28882,17.85962-6.71777,0-11.46948-3.2771-11.46948-17.20435v-45.5503h29.82081v-10.65039h-29.82081V9.01172h-11.30567v4.09619c0,21.3003-3.60474,27.52686-20.80909,27.52686H0v9.33936h16.54883v48.49976c0,16.54883,8.52051,25.23291,24.74146,25.23291,18.67896,0,25.88843-10.81421,25.88843-28.67408v-7.53687h-9.83106v7.37329Z"/>
      <path class="cls-1" d="M124.72121,38.17701c-11.14185,0-19.66211,7.20923-24.24976,14.91016h-1.31079v-13.76343h-30.96778v10.65039h10.81421c2.29395,0,3.76831,1.14697,3.76831,3.76856l.00024,53.41529c0,2.7854-1.31079,4.26001-4.09644,4.26001h-10.48633v10.65039l48.66358-.00024v-10.65015h-12.94409c-2.7854,0-4.09644-1.31079-4.09644-4.26001v-41.29029c5.07935-10.15869,13.27197-18.1875,20.64527-18.1875,3.60474,0,8.19238,1.31079,8.19238,3.93262,0,.65527-.98315,1.47437-1.80225,2.45752-1.80249,1.63867-3.11328,3.60474-3.11328,6.88184,0,5.07935,3.60474,9.17554,9.17578,9.17554,7.37329,0,11.96094-5.89868,11.96094-13.92725,0-8.35645-6.39014-18.02368-20.15357-18.02344Z"/>
      <path class="cls-1" d="M168.17349,23.92188c6.55408,0,11.96106-5.40698,11.96106-12.125,0-6.39014-5.40698-11.79688-11.96106-11.79688-6.7179,0-12.12488,5.40674-12.12488,11.79688,0,6.71802,5.40698,12.125,12.12488,12.125Z"/>
      <path class="cls-1" d="M177.67691,106.99391V39.32374h-31.62317v10.65039h10.48633c2.78552,0,4.09631,1.63867,4.09631,4.42383v52.59596c0,2.94946-1.31067,4.42407-4.25989,4.42407h-10.32276v10.65015h46.20582v-10.65015h-10.48633c-2.78552,0-4.09631-1.47461-4.09631-4.42407Z"/>
      <path class="cls-1" d="M258.79887,91.42824c-.98315,12.78028-8.02869,21.792-23.59449,21.792-19.00659,0-27.36292-14.58252-27.36292-32.60596,0-19.17066,7.86487-34.08106,25.56043-34.08106,9.50342,0,17.20447,3.60474,17.20447,6.71802,0,.65503-.32776,1.31055-.98303,1.80225-1.80249,1.63843-3.60486,3.93237-3.60486,7.37329,0,4.42407,2.94934,9.17554,9.66712,9.17554,8.02881,0,11.46948-5.73486,11.46948-11.96094,0-9.8313-10.65015-22.2837-33.09766-22.2837-28.67371,0-44.07569,21.13648-44.07569,44.07569,0,22.44751,12.78028,42.60084,42.60096,42.60084,25.72449,0,36.21094-16.05713,37.03016-32.60596h-10.81397Z"/>
      <path class="cls-1" d="M406.31086,106.99391V4.09595l-31.62305.00024v10.65015h10.32251c3.11328,0,4.26001,1.63843,4.26001,4.42383l.00012,87.82374c0,2.94922-1.31067,4.42407-4.26013,4.42407h-20.31751c-2.45776,0-3.76868-.98315-5.24304-2.94946l-28.51014-35.88306,17.36829-16.38526c3.27686-2.78516,7.04553-6.22608,12.45239-6.22608h9.83106v-10.65039h-49.31886v10.65039h11.63342c2.45776,0,4.26013.32764,4.26013,2.12988,0,1.63867-1.96619,3.44092-3.76868,5.07959l-32.27845,29.49292V4.09619h-31.62305v10.65015h10.32251c3.11328,0,4.26001,1.63843,4.26001,4.42383v87.82374c.00012,2.94946-1.31055,4.42407-4.26001,4.42407h-10.32251v10.65015h46.20557v-10.65015h-10.48633c-2.7854,0-4.09619-1.47461-4.09619-4.42407v-9.01172l17.20435-15.23804,19.49817,24.24976c1.47473,1.63843,1.80237,2.29395,1.80237,3.11304,0,.98315-.98315,1.31104-2.45776,1.31104h-12.125v10.65015h95.85243v-10.65015h-10.48645c-2.7854,0-4.09619-1.47485-4.09619-4.42407Z"/>
      <path class="cls-1" d="M463.4615,113.54787c-16.87647,0-26.21607-10.81397-27.0354-32.93384h63.57399c0-26.54371-14.91028-43.2566-39.3241-43.2566-22.28357,0-42.1095,16.38501-42.1095,43.74805,0,22.77515,13.27197,42.92872,44.07593,42.92872,18.51502,0,34.40833-11.46948,37.35767-31.29517h-11.96106c-2.7854,14.91016-12.61634,20.80884-24.57752,20.80884ZM460.83992,46.86085c13.76343,0,21.13672,10.48633,21.13672,25.39673h-45.22266c1.47473-14.58277,9.01172-25.39673,24.08594-25.39673Z"/>
    </g>
  </g>
</svg>