<svg xmlns="http://www.w3.org/2000/svg" xmlns:xlink="http://www.w3.org/1999/xlink" zoomAndPan="magnify" preserveAspectRatio="xMidYMid meet" version="1.0" viewBox="1.43 0 147.13 36.78"><defs><g/><clipPath id="81414679c2"><path d="M 1.433594 0 L 148.5625 0 L 148.5625 36.78125 L 1.433594 36.78125 Z M 1.433594 0 " clip-rule="nonzero"/></clipPath><clipPath id="8d17d5dcf9"><path d="M 2 0 L 148.5625 0 L 148.5625 36.78125 L 2 36.78125 Z M 2 0 " clip-rule="nonzero"/></clipPath><clipPath id="9878e5e8a2"><path d="M 135 14 L 146.5625 14 L 146.5625 21 L 135 21 Z M 135 14 " clip-rule="nonzero"/></clipPath><clipPath id="40a52537c3"><rect x="0" width="147" y="0" height="37"/></clipPath></defs><g clip-path="url(#81414679c2)"><path fill="#ffffff" d="M 1.433594 0 L 148.566406 0 L 148.566406 36.78125 L 1.433594 36.78125 Z M 1.433594 0 " fill-opacity="1" fill-rule="nonzero"/><path fill="#ffffff" d="M 1.433594 0 L 148.566406 0 L 148.566406 36.78125 L 1.433594 36.78125 Z M 1.433594 0 " fill-opacity="1" fill-rule="nonzero"/></g><g clip-path="url(#8d17d5dcf9)"><g transform="matrix(1, 0, 0, 1, 2, -0.000000000000003525)"><g clip-path="url(#40a52537c3)"><g fill="#000000" fill-opacity="1"><g transform="translate(1.281335, 20.721851)"><g><path d="M 31.3125 -16.734375 C 31.3125 -16.296875 31.132812 -15.878906 30.78125 -15.484375 C 30.4375 -15.085938 29.863281 -14.675781 29.0625 -14.25 C 27.582031 -13.46875 25.378906 -13.078125 22.453125 -13.078125 C 21.703125 -13.078125 20.976562 -13.15625 20.28125 -13.3125 C 19.59375 -13.46875 18.800781 -13.648438 17.90625 -13.859375 C 17.46875 -13.953125 17.019531 -14.046875 16.5625 -14.140625 C 16.113281 -14.234375 15.675781 -14.3125 15.25 -14.375 C 14.820312 -14.445312 14.421875 -14.503906 14.046875 -14.546875 C 13.671875 -14.597656 13.34375 -14.625 13.0625 -14.625 C 11.789062 -14.625 10.644531 -14.445312 9.625 -14.09375 C 8.613281 -13.75 7.734375 -13.332031 6.984375 -12.84375 C 6.546875 -12.5625 6.222656 -12.222656 6.015625 -11.828125 C 5.804688 -11.441406 5.613281 -11.015625 5.4375 -10.546875 C 5.375 -10.328125 5.363281 -10.113281 5.40625 -9.90625 C 5.457031 -9.707031 5.453125 -9.5 5.390625 -9.28125 C 5.316406 -9.03125 5.257812 -8.84375 5.21875 -8.71875 C 5.175781 -8.59375 5.109375 -8.53125 5.015625 -8.53125 C 4.640625 -8.53125 4.453125 -8.789062 4.453125 -9.3125 C 4.453125 -11.25 5.335938 -12.78125 7.109375 -13.90625 C 8.671875 -14.882812 10.566406 -15.375 12.796875 -15.375 C 13.640625 -15.375 14.515625 -15.296875 15.421875 -15.140625 C 16.328125 -14.984375 17.28125 -14.796875 18.28125 -14.578125 C 19.3125 -14.359375 20.175781 -14.203125 20.875 -14.109375 C 21.570312 -14.015625 22.144531 -13.96875 22.59375 -13.96875 C 23.65625 -13.96875 24.628906 -14.03125 25.515625 -14.15625 C 26.398438 -14.28125 27.066406 -14.40625 27.515625 -14.53125 C 27.734375 -14.78125 27.941406 -15.046875 28.140625 -15.328125 C 28.347656 -15.609375 28.65625 -15.9375 29.0625 -16.3125 C 29.75 -16.90625 30.226562 -17.203125 30.5 -17.203125 C 30.6875 -17.203125 30.867188 -17.144531 31.046875 -17.03125 C 31.222656 -16.914062 31.3125 -16.816406 31.3125 -16.734375 Z M 14.296875 -10.546875 C 14.296875 -10.347656 14.191406 -10.09375 13.984375 -9.78125 C 13.785156 -9.46875 13.53125 -9.128906 13.21875 -8.765625 C 12.90625 -8.410156 12.5625 -8.03125 12.1875 -7.625 C 11.8125 -7.226562 11.453125 -6.84375 11.109375 -6.46875 C 10.796875 -6.144531 10.519531 -5.859375 10.28125 -5.609375 C 10.039062 -5.359375 9.785156 -5.113281 9.515625 -4.875 C 9.546875 -4.84375 9.613281 -4.757812 9.71875 -4.625 C 9.832031 -4.5 9.953125 -4.359375 10.078125 -4.203125 C 10.203125 -4.054688 10.320312 -3.925781 10.4375 -3.8125 C 10.5625 -3.695312 10.640625 -3.640625 10.671875 -3.640625 C 10.929688 -3.640625 11.191406 -3.6875 11.453125 -3.78125 C 11.710938 -3.882812 11.878906 -3.9375 11.953125 -3.9375 C 12.046875 -3.9375 12.144531 -3.925781 12.25 -3.90625 C 12.363281 -3.894531 12.421875 -3.84375 12.421875 -3.75 C 12.421875 -3.71875 12.359375 -3.660156 12.234375 -3.578125 C 12.109375 -3.503906 11.953125 -3.425781 11.765625 -3.34375 C 11.578125 -3.269531 11.367188 -3.207031 11.140625 -3.15625 C 10.921875 -3.101562 10.71875 -3.082031 10.53125 -3.09375 C 10.125 -3.125 9.769531 -3.242188 9.46875 -3.453125 C 9.175781 -3.671875 8.90625 -3.875 8.65625 -4.0625 C 8.46875 -3.84375 8.304688 -3.671875 8.171875 -3.546875 C 8.035156 -3.421875 7.828125 -3.238281 7.546875 -3 C 6.890625 -2.46875 6.269531 -1.976562 5.6875 -1.53125 C 5.101562 -1.09375 4.582031 -0.753906 4.125 -0.515625 C 3.84375 -0.359375 3.546875 -0.21875 3.234375 -0.09375 C 2.921875 0.03125 2.617188 0.132812 2.328125 0.21875 C 2.046875 0.3125 1.785156 0.378906 1.546875 0.421875 C 1.316406 0.472656 1.140625 0.5 1.015625 0.5 C 0.703125 0.476562 0.441406 0.375 0.234375 0.1875 C 0.0234375 0 -0.078125 -0.234375 -0.078125 -0.515625 C -0.078125 -0.671875 -0.0507812 -0.878906 0 -1.140625 C 0.0507812 -1.410156 0.144531 -1.664062 0.28125 -1.90625 C 0.4375 -2.15625 0.628906 -2.375 0.859375 -2.5625 C 1.085938 -2.757812 1.285156 -2.859375 1.453125 -2.859375 C 1.535156 -2.859375 1.628906 -2.832031 1.734375 -2.78125 C 1.847656 -2.738281 1.957031 -2.679688 2.0625 -2.609375 C 2.175781 -2.546875 2.265625 -2.472656 2.328125 -2.390625 C 2.398438 -2.316406 2.4375 -2.253906 2.4375 -2.203125 C 2.4375 -2.078125 2.34375 -2.015625 2.15625 -2.015625 C 2.125 -2.015625 2.082031 -2.035156 2.03125 -2.078125 C 1.988281 -2.128906 1.929688 -2.179688 1.859375 -2.234375 C 1.796875 -2.296875 1.726562 -2.34375 1.65625 -2.375 C 1.582031 -2.414062 1.515625 -2.429688 1.453125 -2.421875 C 1.378906 -2.398438 1.28125 -2.320312 1.15625 -2.1875 C 1.039062 -2.0625 0.929688 -1.910156 0.828125 -1.734375 C 0.734375 -1.566406 0.648438 -1.390625 0.578125 -1.203125 C 0.503906 -1.015625 0.46875 -0.859375 0.46875 -0.734375 C 0.46875 -0.617188 0.523438 -0.488281 0.640625 -0.34375 C 0.765625 -0.207031 0.957031 -0.140625 1.21875 -0.140625 C 1.375 -0.140625 1.566406 -0.1875 1.796875 -0.28125 C 2.023438 -0.375 2.265625 -0.488281 2.515625 -0.625 C 2.773438 -0.769531 3.039062 -0.929688 3.3125 -1.109375 C 3.59375 -1.296875 3.863281 -1.472656 4.125 -1.640625 C 4.394531 -1.816406 4.617188 -1.972656 4.796875 -2.109375 C 4.972656 -2.253906 5.144531 -2.398438 5.3125 -2.546875 C 5.488281 -2.691406 5.671875 -2.859375 5.859375 -3.046875 C 6.046875 -3.234375 6.289062 -3.46875 6.59375 -3.75 C 6.65625 -3.8125 6.742188 -3.894531 6.859375 -4 C 6.972656 -4.101562 7.097656 -4.210938 7.234375 -4.328125 C 7.367188 -4.441406 7.492188 -4.550781 7.609375 -4.65625 C 7.722656 -4.757812 7.804688 -4.832031 7.859375 -4.875 C 7.703125 -5.050781 7.539062 -5.21875 7.375 -5.375 C 7.207031 -5.53125 7.015625 -5.691406 6.796875 -5.859375 C 6.660156 -5.972656 6.546875 -6.085938 6.453125 -6.203125 C 6.359375 -6.316406 6.222656 -6.375 6.046875 -6.375 C 5.578125 -6.375 5.265625 -6.117188 5.109375 -5.609375 C 5.078125 -5.460938 5.050781 -5.285156 5.03125 -5.078125 C 5.007812 -4.867188 4.984375 -4.765625 4.953125 -4.765625 C 4.679688 -4.765625 4.546875 -4.910156 4.546875 -5.203125 C 4.546875 -5.734375 4.695312 -6.164062 5 -6.5 C 5.3125 -6.84375 5.660156 -7.015625 6.046875 -7.015625 C 6.265625 -7.015625 6.46875 -7 6.65625 -6.96875 C 6.84375 -6.945312 7.070312 -6.84375 7.34375 -6.65625 L 8.65625 -5.71875 L 10.53125 -7.71875 C 10.8125 -8.007812 11.109375 -8.351562 11.421875 -8.75 C 11.742188 -9.15625 12.046875 -9.53125 12.328125 -9.875 C 12.609375 -10.226562 12.851562 -10.523438 13.0625 -10.765625 C 13.28125 -11.015625 13.421875 -11.140625 13.484375 -11.140625 C 13.609375 -11.140625 13.773438 -11.085938 13.984375 -10.984375 C 14.191406 -10.878906 14.296875 -10.734375 14.296875 -10.546875 Z M 14.296875 -10.546875 "/></g></g></g><g fill="#000000" fill-opacity="1"><g transform="translate(14.684674, 20.721851)"><g><path d="M 11.4375 -3.125 C 11.4375 -2.875 11.054688 -2.65625 10.296875 -2.46875 C 9.484375 -2.289062 8.691406 -2.203125 7.921875 -2.203125 C 7.378906 -2.203125 6.828125 -2.320312 6.265625 -2.5625 C 5.671875 -1.96875 5.164062 -1.5 4.75 -1.15625 C 4.332031 -0.8125 4.015625 -0.5625 3.796875 -0.40625 C 3.347656 -0.0390625 2.90625 0.238281 2.46875 0.4375 C 2.03125 0.632812 1.582031 0.734375 1.125 0.734375 C 0.988281 0.734375 0.84375 0.691406 0.6875 0.609375 C 0.539062 0.535156 0.410156 0.441406 0.296875 0.328125 C 0.179688 0.222656 0.0859375 0.101562 0.015625 -0.03125 C -0.0546875 -0.164062 -0.09375 -0.289062 -0.09375 -0.40625 C -0.09375 -0.65625 -0.03125 -0.945312 0.09375 -1.28125 C 0.21875 -1.613281 0.394531 -1.957031 0.625 -2.3125 C 0.851562 -2.675781 1.125 -3.039062 1.4375 -3.40625 C 1.757812 -3.78125 2.117188 -4.128906 2.515625 -4.453125 C 2.828125 -4.722656 3.164062 -4.984375 3.53125 -5.234375 C 3.894531 -5.484375 4.304688 -5.691406 4.765625 -5.859375 C 5.117188 -6.003906 5.441406 -6.078125 5.734375 -6.078125 C 6.023438 -6.078125 6.253906 -6.078125 6.421875 -6.078125 C 6.628906 -6.078125 6.847656 -5.941406 7.078125 -5.671875 C 7.316406 -5.410156 7.4375 -5.113281 7.4375 -4.78125 C 7.4375 -4.613281 7.375 -4.40625 7.25 -4.15625 C 7.125 -3.90625 6.957031 -3.582031 6.75 -3.1875 C 6.863281 -3.09375 7.03125 -3.003906 7.25 -2.921875 C 7.46875 -2.847656 7.703125 -2.8125 7.953125 -2.8125 C 8.328125 -2.8125 8.671875 -2.8125 8.984375 -2.8125 C 9.304688 -2.8125 9.585938 -2.84375 9.828125 -2.90625 C 10.179688 -3 10.476562 -3.085938 10.71875 -3.171875 C 10.96875 -3.265625 11.113281 -3.3125 11.15625 -3.3125 C 11.34375 -3.3125 11.4375 -3.25 11.4375 -3.125 Z M 5.765625 -3.09375 C 5.703125 -3.25 5.65625 -3.390625 5.625 -3.515625 C 5.59375 -3.640625 5.5625 -3.78125 5.53125 -3.9375 C 5.5 -4.125 5.472656 -4.300781 5.453125 -4.46875 C 5.441406 -4.644531 5.40625 -4.78125 5.34375 -4.875 C 5.15625 -4.832031 4.945312 -4.734375 4.71875 -4.578125 C 4.5 -4.429688 4.28125 -4.269531 4.0625 -4.09375 C 3.84375 -3.914062 3.632812 -3.734375 3.4375 -3.546875 C 3.238281 -3.367188 3.078125 -3.21875 2.953125 -3.09375 C 2.410156 -2.53125 1.96875 -2.019531 1.625 -1.5625 C 1.289062 -1.113281 1.125 -0.757812 1.125 -0.5 C 1.125 -0.375 1.144531 -0.238281 1.1875 -0.09375 C 1.238281 0.0507812 1.304688 0.125 1.390625 0.125 C 1.984375 0.125 2.796875 -0.300781 3.828125 -1.15625 C 4.085938 -1.375 4.398438 -1.65625 4.765625 -2 C 5.140625 -2.351562 5.472656 -2.71875 5.765625 -3.09375 Z M 5.765625 -3.09375 "/></g></g></g><g fill="#000000" fill-opacity="1"><g transform="translate(24.151364, 20.721851)"><g><path d="M 14.015625 -2.109375 C 14.015625 -2.035156 13.820312 -1.875 13.4375 -1.625 C 13.0625 -1.382812 12.488281 -1.132812 11.71875 -0.875 C 10.519531 -0.4375 9.597656 -0.21875 8.953125 -0.21875 C 8.609375 -0.21875 8.316406 -0.234375 8.078125 -0.265625 C 7.835938 -0.304688 7.613281 -0.390625 7.40625 -0.515625 C 7.375 -0.546875 7.300781 -0.613281 7.1875 -0.71875 C 7.082031 -0.820312 7.007812 -0.9375 6.96875 -1.0625 C 6.914062 -1.15625 6.882812 -1.253906 6.875 -1.359375 C 6.875 -1.472656 6.875 -1.566406 6.875 -1.640625 C 6.40625 -1.378906 5.96875 -1.140625 5.5625 -0.921875 C 5.164062 -0.710938 4.6875 -0.53125 4.125 -0.375 C 3.875 -0.300781 3.65625 -0.238281 3.46875 -0.1875 C 3.28125 -0.144531 3.09375 -0.109375 2.90625 -0.078125 C 2.71875 -0.0546875 2.515625 -0.0390625 2.296875 -0.03125 C 2.078125 -0.03125 1.820312 -0.03125 1.53125 -0.03125 C 1.101562 -0.03125 0.71875 -0.160156 0.375 -0.421875 C 0.03125 -0.691406 -0.140625 -1.019531 -0.140625 -1.40625 C -0.140625 -1.65625 0.0195312 -1.988281 0.34375 -2.40625 C 0.675781 -2.832031 1.15625 -3.320312 1.78125 -3.875 C 3.019531 -4.945312 3.863281 -5.484375 4.3125 -5.484375 C 4.425781 -5.484375 4.546875 -5.414062 4.671875 -5.28125 C 4.804688 -5.15625 4.875 -5.003906 4.875 -4.828125 C 4.875 -4.753906 4.804688 -4.65625 4.671875 -4.53125 C 4.546875 -4.40625 4.390625 -4.265625 4.203125 -4.109375 C 4.015625 -3.953125 3.8125 -3.785156 3.59375 -3.609375 C 3.375 -3.441406 3.175781 -3.269531 3 -3.09375 C 2.84375 -2.9375 2.675781 -2.769531 2.5 -2.59375 C 2.332031 -2.425781 2.175781 -2.265625 2.03125 -2.109375 C 1.882812 -1.953125 1.765625 -1.8125 1.671875 -1.6875 C 1.578125 -1.5625 1.53125 -1.46875 1.53125 -1.40625 C 1.53125 -1.269531 1.539062 -1.109375 1.5625 -0.921875 C 1.582031 -0.742188 1.734375 -0.65625 2.015625 -0.65625 C 2.816406 -0.65625 3.671875 -0.828125 4.578125 -1.171875 C 5.492188 -1.515625 6.328125 -1.96875 7.078125 -2.53125 C 7.203125 -2.675781 7.375 -2.867188 7.59375 -3.109375 C 7.8125 -3.347656 8.164062 -3.664062 8.65625 -4.0625 C 9 -4.320312 9.300781 -4.519531 9.5625 -4.65625 C 9.832031 -4.789062 10.003906 -4.859375 10.078125 -4.859375 C 10.203125 -4.859375 10.316406 -4.816406 10.421875 -4.734375 C 10.535156 -4.660156 10.59375 -4.535156 10.59375 -4.359375 C 10.59375 -4.128906 10.519531 -3.90625 10.375 -3.6875 C 10.226562 -3.476562 10.046875 -3.28125 9.828125 -3.09375 C 9.742188 -3.03125 9.613281 -2.9375 9.4375 -2.8125 C 9.269531 -2.6875 9.039062 -2.53125 8.75 -2.34375 C 8.53125 -2.21875 8.351562 -2.085938 8.21875 -1.953125 C 8.082031 -1.828125 8.015625 -1.722656 8.015625 -1.640625 C 8.015625 -1.421875 8.070312 -1.207031 8.1875 -1 C 8.3125 -0.800781 8.550781 -0.703125 8.90625 -0.703125 C 9.207031 -0.703125 9.601562 -0.757812 10.09375 -0.875 C 10.582031 -1 11.078125 -1.144531 11.578125 -1.3125 C 11.796875 -1.394531 12.019531 -1.488281 12.25 -1.59375 C 12.488281 -1.707031 12.707031 -1.8125 12.90625 -1.90625 C 13.113281 -2 13.285156 -2.078125 13.421875 -2.140625 C 13.566406 -2.210938 13.664062 -2.25 13.71875 -2.25 C 13.820312 -2.25 13.894531 -2.242188 13.9375 -2.234375 C 13.988281 -2.234375 14.015625 -2.191406 14.015625 -2.109375 Z M 14.015625 -2.109375 "/></g></g></g><g fill="#000000" fill-opacity="1"><g transform="translate(36.547108, 20.721851)"><g><path d="M 13.953125 -2.09375 C 13.953125 -2.03125 13.878906 -1.941406 13.734375 -1.828125 C 13.597656 -1.722656 13.410156 -1.601562 13.171875 -1.46875 C 12.941406 -1.332031 12.679688 -1.195312 12.390625 -1.0625 C 12.097656 -0.9375 11.8125 -0.828125 11.53125 -0.734375 C 9.582031 -0.0859375 8.097656 0.234375 7.078125 0.234375 C 6.703125 0.234375 6.34375 0.132812 6 -0.0625 C 5.65625 -0.257812 5.484375 -0.519531 5.484375 -0.84375 C 5.484375 -0.925781 5.492188 -1.054688 5.515625 -1.234375 C 5.546875 -1.410156 5.675781 -1.632812 5.90625 -1.90625 C 6.113281 -2.125 6.359375 -2.394531 6.640625 -2.71875 C 6.921875 -3.050781 7.234375 -3.328125 7.578125 -3.546875 C 7.234375 -3.421875 6.9375 -3.3125 6.6875 -3.21875 C 6.4375 -3.132812 6.191406 -3.050781 5.953125 -2.96875 C 5.722656 -2.882812 5.484375 -2.789062 5.234375 -2.6875 C 4.984375 -2.582031 4.6875 -2.453125 4.34375 -2.296875 C 3.257812 -1.796875 2.375 -1.363281 1.6875 -1 C 1 -0.632812 0.609375 -0.453125 0.515625 -0.453125 C 0.148438 -0.453125 -0.03125 -0.644531 -0.03125 -1.03125 C -0.03125 -1.25 0.285156 -1.640625 0.921875 -2.203125 C 1.554688 -2.765625 1.875 -3.140625 1.875 -3.328125 C 1.875 -3.765625 1.910156 -4.109375 1.984375 -4.359375 C 2.054688 -4.609375 2.328125 -4.734375 2.796875 -4.734375 C 3.023438 -4.734375 3.222656 -4.613281 3.390625 -4.375 C 3.566406 -4.132812 3.632812 -3.859375 3.59375 -3.546875 C 3.5625 -3.367188 3.484375 -3.160156 3.359375 -2.921875 C 3.242188 -2.679688 3.132812 -2.472656 3.03125 -2.296875 C 3.34375 -2.441406 3.753906 -2.632812 4.265625 -2.875 C 4.785156 -3.113281 5.332031 -3.335938 5.90625 -3.546875 C 6.25 -3.671875 6.597656 -3.789062 6.953125 -3.90625 C 7.316406 -4.019531 7.660156 -4.125 7.984375 -4.21875 C 8.316406 -4.3125 8.628906 -4.382812 8.921875 -4.4375 C 9.210938 -4.5 9.457031 -4.53125 9.65625 -4.53125 C 9.988281 -4.53125 10.15625 -4.347656 10.15625 -3.984375 C 10.15625 -3.847656 9.894531 -3.613281 9.375 -3.28125 C 8.6875 -2.863281 8.242188 -2.535156 8.046875 -2.296875 C 7.296875 -1.503906 6.921875 -1.019531 6.921875 -0.84375 C 6.921875 -0.738281 6.96875 -0.644531 7.0625 -0.5625 C 7.164062 -0.488281 7.335938 -0.453125 7.578125 -0.453125 C 7.929688 -0.453125 8.445312 -0.515625 9.125 -0.640625 C 9.8125 -0.773438 10.550781 -0.96875 11.34375 -1.21875 C 11.53125 -1.269531 11.75 -1.351562 12 -1.46875 C 12.25 -1.582031 12.488281 -1.703125 12.71875 -1.828125 C 12.957031 -1.953125 13.160156 -2.0625 13.328125 -2.15625 C 13.503906 -2.25 13.609375 -2.296875 13.640625 -2.296875 C 13.847656 -2.296875 13.953125 -2.226562 13.953125 -2.09375 Z M 13.953125 -2.09375 "/></g></g></g><g fill="#000000" fill-opacity="1"><g transform="translate(49.200606, 20.721851)"><g><path d="M 10.015625 -9.65625 C 10.015625 -8.425781 9.566406 -7.050781 8.671875 -5.53125 C 7.753906 -4 6.65625 -2.71875 5.375 -1.6875 C 3.914062 -0.5625 2.5 0 1.125 0 C 0.769531 0 0.472656 -0.140625 0.234375 -0.421875 C -0.00390625 -0.703125 -0.125 -1.023438 -0.125 -1.390625 C -0.125 -1.554688 -0.078125 -1.785156 0.015625 -2.078125 C 0.117188 -2.367188 0.300781 -2.644531 0.5625 -2.90625 C 0.8125 -3.15625 1.113281 -3.40625 1.46875 -3.65625 C 1.832031 -3.90625 2.195312 -4.132812 2.5625 -4.34375 C 3 -4.59375 3.40625 -4.757812 3.78125 -4.84375 C 4.164062 -4.925781 4.507812 -4.96875 4.8125 -4.96875 C 4.96875 -4.96875 5.078125 -4.898438 5.140625 -4.765625 C 5.203125 -4.640625 5.234375 -4.5 5.234375 -4.34375 C 5.234375 -4.164062 5.148438 -4.050781 4.984375 -4 C 4.816406 -3.945312 4.625 -3.875 4.40625 -3.78125 C 4.1875 -3.6875 4.007812 -3.613281 3.875 -3.5625 C 3.75 -3.519531 3.640625 -3.476562 3.546875 -3.4375 C 3.453125 -3.394531 3.363281 -3.351562 3.28125 -3.3125 C 3.207031 -3.28125 3.109375 -3.222656 2.984375 -3.140625 C 2.765625 -3.015625 2.546875 -2.875 2.328125 -2.71875 C 2.109375 -2.5625 1.90625 -2.40625 1.71875 -2.25 C 1.539062 -2.09375 1.394531 -1.9375 1.28125 -1.78125 C 1.175781 -1.625 1.125 -1.492188 1.125 -1.390625 C 1.125 -1.265625 1.160156 -1.113281 1.234375 -0.9375 C 1.316406 -0.769531 1.460938 -0.6875 1.671875 -0.6875 C 2.328125 -0.6875 3.09375 -0.960938 3.96875 -1.515625 C 4.851562 -2.066406 5.726562 -2.820312 6.59375 -3.78125 C 7.007812 -4.257812 7.390625 -4.765625 7.734375 -5.296875 C 8.078125 -5.828125 8.375 -6.347656 8.625 -6.859375 C 8.875 -7.378906 9.066406 -7.878906 9.203125 -8.359375 C 9.347656 -8.847656 9.421875 -9.28125 9.421875 -9.65625 C 9.421875 -10.25 9.363281 -10.832031 9.25 -11.40625 C 9.132812 -11.988281 9.015625 -12.484375 8.890625 -12.890625 C 8.765625 -13.265625 8.597656 -13.609375 8.390625 -13.921875 C 8.191406 -14.234375 7.9375 -14.617188 7.625 -15.078125 C 7.28125 -15.578125 7.007812 -15.945312 6.8125 -16.1875 C 6.613281 -16.425781 6.429688 -16.632812 6.265625 -16.8125 C 6.078125 -17.007812 5.851562 -17.171875 5.59375 -17.296875 C 5.332031 -17.421875 5.070312 -17.484375 4.8125 -17.484375 C 4.625 -17.484375 4.390625 -17.382812 4.109375 -17.1875 C 3.828125 -17 3.609375 -16.722656 3.453125 -16.359375 C 3.367188 -16.191406 3.3125 -16.015625 3.28125 -15.828125 C 3.25 -15.648438 3.226562 -15.488281 3.21875 -15.34375 C 3.21875 -15.207031 3.21875 -15.097656 3.21875 -15.015625 C 3.21875 -14.929688 3.203125 -14.890625 3.171875 -14.890625 C 2.960938 -14.890625 2.804688 -14.910156 2.703125 -14.953125 C 2.609375 -15.003906 2.5625 -15.109375 2.5625 -15.265625 C 2.5625 -15.429688 2.578125 -15.640625 2.609375 -15.890625 C 2.648438 -16.140625 2.773438 -16.445312 2.984375 -16.8125 C 3.234375 -17.25 3.523438 -17.570312 3.859375 -17.78125 C 4.191406 -17.988281 4.507812 -18.09375 4.8125 -18.09375 C 5.4375 -18.09375 6.03125 -17.835938 6.59375 -17.328125 C 6.71875 -17.203125 6.941406 -16.9375 7.265625 -16.53125 C 7.597656 -16.132812 7.9375 -15.710938 8.28125 -15.265625 C 8.945312 -14.335938 9.398438 -13.429688 9.640625 -12.546875 C 9.890625 -11.671875 10.015625 -10.707031 10.015625 -9.65625 Z M 10.015625 -9.65625 "/></g></g></g><g fill="#000000" fill-opacity="1"><g transform="translate(56.183462, 20.721851)"><g><path d="M 7.875 -1.78125 C 7.875 -1.707031 7.691406 -1.578125 7.328125 -1.390625 C 6.972656 -1.210938 6.46875 -1 5.8125 -0.75 C 5.113281 -0.46875 4.5 -0.25 3.96875 -0.09375 C 3.445312 0.0507812 2.953125 0.125 2.484375 0.125 C 2.109375 0.125 1.753906 0.0703125 1.421875 -0.03125 C 1.097656 -0.132812 0.816406 -0.265625 0.578125 -0.421875 C 0.335938 -0.578125 0.144531 -0.753906 0 -0.953125 C -0.144531 -1.160156 -0.21875 -1.359375 -0.21875 -1.546875 C -0.21875 -1.941406 -0.0664062 -2.34375 0.234375 -2.75 C 0.546875 -3.164062 1.03125 -3.65625 1.6875 -4.21875 C 2.050781 -4.53125 2.425781 -4.820312 2.8125 -5.09375 C 3.207031 -5.375 3.625 -5.65625 4.0625 -5.9375 C 4.46875 -6.195312 4.828125 -6.390625 5.140625 -6.515625 C 5.453125 -6.640625 5.65625 -6.703125 5.75 -6.703125 C 6.25 -6.703125 6.5 -6.5 6.5 -6.09375 C 6.5 -5.5 5.816406 -4.726562 4.453125 -3.78125 C 3.441406 -3.0625 2.582031 -2.519531 1.875 -2.15625 C 1.65625 -2 1.472656 -1.832031 1.328125 -1.65625 C 1.191406 -1.488281 1.125 -1.34375 1.125 -1.21875 C 1.125 -1.019531 1.253906 -0.84375 1.515625 -0.6875 C 1.785156 -0.539062 2.171875 -0.46875 2.671875 -0.46875 C 3.347656 -0.46875 4.316406 -0.71875 5.578125 -1.21875 C 6.203125 -1.46875 6.6875 -1.671875 7.03125 -1.828125 C 7.375 -1.984375 7.5625 -2.0625 7.59375 -2.0625 C 7.738281 -2.0625 7.820312 -2.039062 7.84375 -2 C 7.863281 -1.96875 7.875 -1.894531 7.875 -1.78125 Z M 7.875 -1.78125 "/></g></g></g><g fill="#000000" fill-opacity="1"><g transform="translate(62.955426, 20.721851)"><g><path d="M 10.71875 -2.421875 C 10.71875 -2.359375 10.609375 -2.257812 10.390625 -2.125 C 10.171875 -1.988281 9.894531 -1.84375 9.5625 -1.6875 C 9.238281 -1.53125 8.878906 -1.363281 8.484375 -1.1875 C 8.097656 -1.019531 7.738281 -0.875 7.40625 -0.75 C 7.03125 -0.613281 6.65625 -0.484375 6.28125 -0.359375 C 5.90625 -0.234375 5.640625 -0.15625 5.484375 -0.125 C 4.921875 0.0390625 4.210938 0.125 3.359375 0.125 C 3.234375 0.125 3.09375 0.109375 2.9375 0.078125 C 2.78125 0.0546875 2.597656 -0.0078125 2.390625 -0.125 C 2.160156 -0.257812 1.957031 -0.414062 1.78125 -0.59375 C 1.613281 -0.78125 1.53125 -1.003906 1.53125 -1.265625 C 1.53125 -1.390625 1.59375 -1.5625 1.71875 -1.78125 C 1.851562 -2 2.078125 -2.28125 2.390625 -2.625 C 2.734375 -2.988281 3.023438 -3.269531 3.265625 -3.46875 C 3.515625 -3.675781 3.753906 -3.890625 3.984375 -4.109375 C 3.765625 -4.203125 3.628906 -4.300781 3.578125 -4.40625 C 3.523438 -4.519531 3.457031 -4.660156 3.375 -4.828125 C 3.332031 -4.890625 3.304688 -4.96875 3.296875 -5.0625 C 3.285156 -5.15625 3.273438 -5.238281 3.265625 -5.3125 C 3.265625 -5.382812 3.253906 -5.445312 3.234375 -5.5 C 3.222656 -5.550781 3.191406 -5.578125 3.140625 -5.578125 C 2.984375 -5.578125 2.78125 -5.46875 2.53125 -5.25 C 2.28125 -5.03125 2.03125 -4.8125 1.78125 -4.59375 C 1.457031 -4.28125 1.144531 -3.945312 0.84375 -3.59375 C 0.769531 -3.5 0.691406 -3.40625 0.609375 -3.3125 C 0.535156 -3.21875 0.457031 -3.113281 0.375 -3 C 0.238281 -2.96875 0.148438 -2.9375 0.109375 -2.90625 C 0.0664062 -2.875 0.046875 -2.984375 0.046875 -3.234375 C 0.046875 -3.285156 0.09375 -3.375 0.1875 -3.5 C 0.28125 -3.632812 0.398438 -3.785156 0.546875 -3.953125 C 0.703125 -4.128906 0.863281 -4.304688 1.03125 -4.484375 C 1.207031 -4.671875 1.375 -4.84375 1.53125 -5 C 1.6875 -5.15625 1.851562 -5.3125 2.03125 -5.46875 C 2.207031 -5.632812 2.378906 -5.785156 2.546875 -5.921875 C 2.722656 -6.066406 2.878906 -6.179688 3.015625 -6.265625 C 3.160156 -6.359375 3.273438 -6.40625 3.359375 -6.40625 C 3.578125 -6.40625 3.726562 -6.359375 3.8125 -6.265625 C 3.894531 -6.171875 3.953125 -6.050781 3.984375 -5.90625 C 4.015625 -5.8125 4.015625 -5.703125 3.984375 -5.578125 C 3.953125 -5.453125 3.953125 -5.328125 3.984375 -5.203125 C 4.035156 -5.046875 4.109375 -4.894531 4.203125 -4.75 C 4.304688 -4.613281 4.4375 -4.546875 4.59375 -4.546875 C 4.71875 -4.546875 4.90625 -4.609375 5.15625 -4.734375 C 5.40625 -4.859375 5.671875 -4.984375 5.953125 -5.109375 C 6.234375 -5.234375 6.472656 -5.359375 6.671875 -5.484375 C 6.867188 -5.609375 7.050781 -5.671875 7.21875 -5.671875 C 7.488281 -5.671875 7.675781 -5.609375 7.78125 -5.484375 C 7.894531 -5.359375 7.953125 -5.15625 7.953125 -4.875 C 7.953125 -4.625 7.675781 -4.367188 7.125 -4.109375 C 6.8125 -3.984375 6.503906 -3.898438 6.203125 -3.859375 C 5.910156 -3.816406 5.609375 -3.734375 5.296875 -3.609375 C 5.078125 -3.453125 4.835938 -3.257812 4.578125 -3.03125 C 4.328125 -2.8125 4.085938 -2.582031 3.859375 -2.34375 C 3.628906 -2.113281 3.4375 -1.898438 3.28125 -1.703125 C 3.125 -1.503906 3.046875 -1.359375 3.046875 -1.265625 C 3.046875 -1.160156 3.097656 -1.007812 3.203125 -0.8125 C 3.304688 -0.613281 3.441406 -0.515625 3.609375 -0.515625 C 4.222656 -0.515625 4.816406 -0.582031 5.390625 -0.71875 C 5.972656 -0.851562 6.613281 -1.035156 7.3125 -1.265625 C 7.613281 -1.359375 7.929688 -1.484375 8.265625 -1.640625 C 8.597656 -1.796875 8.910156 -1.941406 9.203125 -2.078125 C 9.492188 -2.222656 9.742188 -2.347656 9.953125 -2.453125 C 10.160156 -2.566406 10.296875 -2.625 10.359375 -2.625 C 10.597656 -2.625 10.71875 -2.554688 10.71875 -2.421875 Z M 10.71875 -2.421875 "/></g></g></g><g fill="#000000" fill-opacity="1"><g transform="translate(71.976905, 20.721851)"><g><path d="M 11.703125 -3.65625 C 11.703125 -3.59375 11.597656 -3.519531 11.390625 -3.4375 C 11.191406 -3.363281 10.945312 -3.28125 10.65625 -3.1875 C 10.363281 -3.09375 10.050781 -2.992188 9.71875 -2.890625 C 9.382812 -2.796875 9.078125 -2.691406 8.796875 -2.578125 C 8.085938 -2.265625 7.472656 -1.960938 6.953125 -1.671875 C 6.429688 -1.390625 5.875 -1.109375 5.28125 -0.828125 C 5.007812 -0.554688 4.773438 -0.335938 4.578125 -0.171875 C 4.390625 -0.00390625 4.125 0.160156 3.78125 0.328125 C 3.09375 0.691406 2.644531 0.875 2.4375 0.875 C 2.050781 0.875 1.859375 0.671875 1.859375 0.265625 C 1.859375 0.210938 2.050781 0.0195312 2.4375 -0.3125 L 3.640625 -1.359375 C 3.859375 -1.566406 4.039062 -1.753906 4.1875 -1.921875 C 4.332031 -2.097656 4.445312 -2.25 4.53125 -2.375 C 4.59375 -2.5625 4.65625 -2.738281 4.71875 -2.90625 C 4.78125 -3.0625 4.835938 -3.222656 4.890625 -3.390625 C 4.941406 -3.566406 4.992188 -3.726562 5.046875 -3.875 C 4.921875 -3.820312 4.75 -3.738281 4.53125 -3.625 C 4.3125 -3.519531 4.066406 -3.394531 3.796875 -3.25 C 3.535156 -3.113281 3.25 -2.96875 2.9375 -2.8125 C 2.632812 -2.65625 2.34375 -2.507812 2.0625 -2.375 C 1.875 -2.28125 1.675781 -2.171875 1.46875 -2.046875 C 1.269531 -1.929688 1.082031 -1.820312 0.90625 -1.71875 C 0.726562 -1.625 0.570312 -1.539062 0.4375 -1.46875 C 0.300781 -1.394531 0.210938 -1.359375 0.171875 -1.359375 C 0.0546875 -1.359375 -0.015625 -1.378906 -0.046875 -1.421875 C -0.078125 -1.460938 -0.09375 -1.566406 -0.09375 -1.734375 C -0.09375 -1.828125 0.191406 -2.035156 0.765625 -2.359375 C 1.347656 -2.679688 2.304688 -3.1875 3.640625 -3.875 C 4.078125 -4.101562 4.550781 -4.363281 5.0625 -4.65625 C 5.582031 -4.957031 6.0625 -5.21875 6.5 -5.4375 C 7.289062 -5.863281 7.8125 -6.078125 8.0625 -6.078125 C 8.363281 -6.078125 8.515625 -5.859375 8.515625 -5.421875 C 8.515625 -5.265625 8.21875 -4.957031 7.625 -4.5 C 7.382812 -4.332031 7.203125 -4.191406 7.078125 -4.078125 C 6.953125 -3.972656 6.765625 -3.832031 6.515625 -3.65625 C 6.503906 -3.582031 6.488281 -3.460938 6.46875 -3.296875 C 6.457031 -3.128906 6.410156 -2.953125 6.328125 -2.765625 C 6.285156 -2.628906 6.21875 -2.484375 6.125 -2.328125 C 6.039062 -2.179688 5.960938 -2.046875 5.890625 -1.921875 C 6.148438 -2.015625 6.519531 -2.175781 7 -2.40625 C 7.488281 -2.644531 7.992188 -2.859375 8.515625 -3.046875 C 8.773438 -3.140625 9.066406 -3.234375 9.390625 -3.328125 C 9.722656 -3.421875 10.03125 -3.507812 10.3125 -3.59375 C 10.59375 -3.6875 10.832031 -3.753906 11.03125 -3.796875 C 11.238281 -3.847656 11.351562 -3.875 11.375 -3.875 C 11.53125 -3.875 11.625 -3.859375 11.65625 -3.828125 C 11.6875 -3.804688 11.703125 -3.75 11.703125 -3.65625 Z M 11.703125 -3.65625 "/></g></g></g><g fill="#000000" fill-opacity="1"><g transform="translate(81.935676, 20.721851)"><g><path d="M 7.109375 -15.609375 C 7.109375 -14.796875 6.578125 -13.625 5.515625 -12.09375 C 5.117188 -11.550781 4.671875 -11.046875 4.171875 -10.578125 C 3.609375 -10.015625 3.164062 -9.671875 2.84375 -9.546875 C 2.46875 -9.398438 2.234375 -9.40625 2.140625 -9.5625 C 2.117188 -9.582031 2.109375 -9.625 2.109375 -9.6875 C 2.109375 -9.71875 2.273438 -9.890625 2.609375 -10.203125 C 3.398438 -10.898438 4.023438 -11.660156 4.484375 -12.484375 C 4.953125 -13.304688 5.238281 -14.019531 5.34375 -14.625 L 5.4375 -15.890625 C 5.46875 -16.265625 5.59375 -16.492188 5.8125 -16.578125 C 5.9375 -16.640625 6.09375 -16.671875 6.28125 -16.671875 C 6.832031 -16.671875 7.109375 -16.316406 7.109375 -15.609375 Z M 7.109375 -15.609375 "/></g></g></g><g fill="#000000" fill-opacity="1"><g transform="translate(89.808964, 20.721851)"><g/></g></g><g fill="#000000" fill-opacity="1"><g transform="translate(96.838688, 20.721851)"><g><path d="M 31.3125 -16.734375 C 31.3125 -16.296875 31.132812 -15.878906 30.78125 -15.484375 C 30.4375 -15.085938 29.863281 -14.675781 29.0625 -14.25 C 27.582031 -13.46875 25.378906 -13.078125 22.453125 -13.078125 C 21.703125 -13.078125 20.976562 -13.15625 20.28125 -13.3125 C 19.59375 -13.46875 18.800781 -13.648438 17.90625 -13.859375 C 17.46875 -13.953125 17.019531 -14.046875 16.5625 -14.140625 C 16.113281 -14.234375 15.675781 -14.3125 15.25 -14.375 C 14.820312 -14.445312 14.421875 -14.503906 14.046875 -14.546875 C 13.671875 -14.597656 13.34375 -14.625 13.0625 -14.625 C 11.789062 -14.625 10.644531 -14.445312 9.625 -14.09375 C 8.613281 -13.75 7.734375 -13.332031 6.984375 -12.84375 C 6.546875 -12.5625 6.222656 -12.222656 6.015625 -11.828125 C 5.804688 -11.441406 5.613281 -11.015625 5.4375 -10.546875 C 5.375 -10.328125 5.363281 -10.113281 5.40625 -9.90625 C 5.457031 -9.707031 5.453125 -9.5 5.390625 -9.28125 C 5.316406 -9.03125 5.257812 -8.84375 5.21875 -8.71875 C 5.175781 -8.59375 5.109375 -8.53125 5.015625 -8.53125 C 4.640625 -8.53125 4.453125 -8.789062 4.453125 -9.3125 C 4.453125 -11.25 5.335938 -12.78125 7.109375 -13.90625 C 8.671875 -14.882812 10.566406 -15.375 12.796875 -15.375 C 13.640625 -15.375 14.515625 -15.296875 15.421875 -15.140625 C 16.328125 -14.984375 17.28125 -14.796875 18.28125 -14.578125 C 19.3125 -14.359375 20.175781 -14.203125 20.875 -14.109375 C 21.570312 -14.015625 22.144531 -13.96875 22.59375 -13.96875 C 23.65625 -13.96875 24.628906 -14.03125 25.515625 -14.15625 C 26.398438 -14.28125 27.066406 -14.40625 27.515625 -14.53125 C 27.734375 -14.78125 27.941406 -15.046875 28.140625 -15.328125 C 28.347656 -15.609375 28.65625 -15.9375 29.0625 -16.3125 C 29.75 -16.90625 30.226562 -17.203125 30.5 -17.203125 C 30.6875 -17.203125 30.867188 -17.144531 31.046875 -17.03125 C 31.222656 -16.914062 31.3125 -16.816406 31.3125 -16.734375 Z M 14.296875 -10.546875 C 14.296875 -10.347656 14.191406 -10.09375 13.984375 -9.78125 C 13.785156 -9.46875 13.53125 -9.128906 13.21875 -8.765625 C 12.90625 -8.410156 12.5625 -8.03125 12.1875 -7.625 C 11.8125 -7.226562 11.453125 -6.84375 11.109375 -6.46875 C 10.796875 -6.144531 10.519531 -5.859375 10.28125 -5.609375 C 10.039062 -5.359375 9.785156 -5.113281 9.515625 -4.875 C 9.546875 -4.84375 9.613281 -4.757812 9.71875 -4.625 C 9.832031 -4.5 9.953125 -4.359375 10.078125 -4.203125 C 10.203125 -4.054688 10.320312 -3.925781 10.4375 -3.8125 C 10.5625 -3.695312 10.640625 -3.640625 10.671875 -3.640625 C 10.929688 -3.640625 11.191406 -3.6875 11.453125 -3.78125 C 11.710938 -3.882812 11.878906 -3.9375 11.953125 -3.9375 C 12.046875 -3.9375 12.144531 -3.925781 12.25 -3.90625 C 12.363281 -3.894531 12.421875 -3.84375 12.421875 -3.75 C 12.421875 -3.71875 12.359375 -3.660156 12.234375 -3.578125 C 12.109375 -3.503906 11.953125 -3.425781 11.765625 -3.34375 C 11.578125 -3.269531 11.367188 -3.207031 11.140625 -3.15625 C 10.921875 -3.101562 10.71875 -3.082031 10.53125 -3.09375 C 10.125 -3.125 9.769531 -3.242188 9.46875 -3.453125 C 9.175781 -3.671875 8.90625 -3.875 8.65625 -4.0625 C 8.46875 -3.84375 8.304688 -3.671875 8.171875 -3.546875 C 8.035156 -3.421875 7.828125 -3.238281 7.546875 -3 C 6.890625 -2.46875 6.269531 -1.976562 5.6875 -1.53125 C 5.101562 -1.09375 4.582031 -0.753906 4.125 -0.515625 C 3.84375 -0.359375 3.546875 -0.21875 3.234375 -0.09375 C 2.921875 0.03125 2.617188 0.132812 2.328125 0.21875 C 2.046875 0.3125 1.785156 0.378906 1.546875 0.421875 C 1.316406 0.472656 1.140625 0.5 1.015625 0.5 C 0.703125 0.476562 0.441406 0.375 0.234375 0.1875 C 0.0234375 0 -0.078125 -0.234375 -0.078125 -0.515625 C -0.078125 -0.671875 -0.0507812 -0.878906 0 -1.140625 C 0.0507812 -1.410156 0.144531 -1.664062 0.28125 -1.90625 C 0.4375 -2.15625 0.628906 -2.375 0.859375 -2.5625 C 1.085938 -2.757812 1.285156 -2.859375 1.453125 -2.859375 C 1.535156 -2.859375 1.628906 -2.832031 1.734375 -2.78125 C 1.847656 -2.738281 1.957031 -2.679688 2.0625 -2.609375 C 2.175781 -2.546875 2.265625 -2.472656 2.328125 -2.390625 C 2.398438 -2.316406 2.4375 -2.253906 2.4375 -2.203125 C 2.4375 -2.078125 2.34375 -2.015625 2.15625 -2.015625 C 2.125 -2.015625 2.082031 -2.035156 2.03125 -2.078125 C 1.988281 -2.128906 1.929688 -2.179688 1.859375 -2.234375 C 1.796875 -2.296875 1.726562 -2.34375 1.65625 -2.375 C 1.582031 -2.414062 1.515625 -2.429688 1.453125 -2.421875 C 1.378906 -2.398438 1.28125 -2.320312 1.15625 -2.1875 C 1.039062 -2.0625 0.929688 -1.910156 0.828125 -1.734375 C 0.734375 -1.566406 0.648438 -1.390625 0.578125 -1.203125 C 0.503906 -1.015625 0.46875 -0.859375 0.46875 -0.734375 C 0.46875 -0.617188 0.523438 -0.488281 0.640625 -0.34375 C 0.765625 -0.207031 0.957031 -0.140625 1.21875 -0.140625 C 1.375 -0.140625 1.566406 -0.1875 1.796875 -0.28125 C 2.023438 -0.375 2.265625 -0.488281 2.515625 -0.625 C 2.773438 -0.769531 3.039062 -0.929688 3.3125 -1.109375 C 3.59375 -1.296875 3.863281 -1.472656 4.125 -1.640625 C 4.394531 -1.816406 4.617188 -1.972656 4.796875 -2.109375 C 4.972656 -2.253906 5.144531 -2.398438 5.3125 -2.546875 C 5.488281 -2.691406 5.671875 -2.859375 5.859375 -3.046875 C 6.046875 -3.234375 6.289062 -3.46875 6.59375 -3.75 C 6.65625 -3.8125 6.742188 -3.894531 6.859375 -4 C 6.972656 -4.101562 7.097656 -4.210938 7.234375 -4.328125 C 7.367188 -4.441406 7.492188 -4.550781 7.609375 -4.65625 C 7.722656 -4.757812 7.804688 -4.832031 7.859375 -4.875 C 7.703125 -5.050781 7.539062 -5.21875 7.375 -5.375 C 7.207031 -5.53125 7.015625 -5.691406 6.796875 -5.859375 C 6.660156 -5.972656 6.546875 -6.085938 6.453125 -6.203125 C 6.359375 -6.316406 6.222656 -6.375 6.046875 -6.375 C 5.578125 -6.375 5.265625 -6.117188 5.109375 -5.609375 C 5.078125 -5.460938 5.050781 -5.285156 5.03125 -5.078125 C 5.007812 -4.867188 4.984375 -4.765625 4.953125 -4.765625 C 4.679688 -4.765625 4.546875 -4.910156 4.546875 -5.203125 C 4.546875 -5.734375 4.695312 -6.164062 5 -6.5 C 5.3125 -6.84375 5.660156 -7.015625 6.046875 -7.015625 C 6.265625 -7.015625 6.46875 -7 6.65625 -6.96875 C 6.84375 -6.945312 7.070312 -6.84375 7.34375 -6.65625 L 8.65625 -5.71875 L 10.53125 -7.71875 C 10.8125 -8.007812 11.109375 -8.351562 11.421875 -8.75 C 11.742188 -9.15625 12.046875 -9.53125 12.328125 -9.875 C 12.609375 -10.226562 12.851562 -10.523438 13.0625 -10.765625 C 13.28125 -11.015625 13.421875 -11.140625 13.484375 -11.140625 C 13.609375 -11.140625 13.773438 -11.085938 13.984375 -10.984375 C 14.191406 -10.878906 14.296875 -10.734375 14.296875 -10.546875 Z M 14.296875 -10.546875 "/></g></g></g><g fill="#000000" fill-opacity="1"><g transform="translate(110.242027, 20.721851)"><g><path d="M 11.4375 -3.125 C 11.4375 -2.875 11.054688 -2.65625 10.296875 -2.46875 C 9.484375 -2.289062 8.691406 -2.203125 7.921875 -2.203125 C 7.378906 -2.203125 6.828125 -2.320312 6.265625 -2.5625 C 5.671875 -1.96875 5.164062 -1.5 4.75 -1.15625 C 4.332031 -0.8125 4.015625 -0.5625 3.796875 -0.40625 C 3.347656 -0.0390625 2.90625 0.238281 2.46875 0.4375 C 2.03125 0.632812 1.582031 0.734375 1.125 0.734375 C 0.988281 0.734375 0.84375 0.691406 0.6875 0.609375 C 0.539062 0.535156 0.410156 0.441406 0.296875 0.328125 C 0.179688 0.222656 0.0859375 0.101562 0.015625 -0.03125 C -0.0546875 -0.164062 -0.09375 -0.289062 -0.09375 -0.40625 C -0.09375 -0.65625 -0.03125 -0.945312 0.09375 -1.28125 C 0.21875 -1.613281 0.394531 -1.957031 0.625 -2.3125 C 0.851562 -2.675781 1.125 -3.039062 1.4375 -3.40625 C 1.757812 -3.78125 2.117188 -4.128906 2.515625 -4.453125 C 2.828125 -4.722656 3.164062 -4.984375 3.53125 -5.234375 C 3.894531 -5.484375 4.304688 -5.691406 4.765625 -5.859375 C 5.117188 -6.003906 5.441406 -6.078125 5.734375 -6.078125 C 6.023438 -6.078125 6.253906 -6.078125 6.421875 -6.078125 C 6.628906 -6.078125 6.847656 -5.941406 7.078125 -5.671875 C 7.316406 -5.410156 7.4375 -5.113281 7.4375 -4.78125 C 7.4375 -4.613281 7.375 -4.40625 7.25 -4.15625 C 7.125 -3.90625 6.957031 -3.582031 6.75 -3.1875 C 6.863281 -3.09375 7.03125 -3.003906 7.25 -2.921875 C 7.46875 -2.847656 7.703125 -2.8125 7.953125 -2.8125 C 8.328125 -2.8125 8.671875 -2.8125 8.984375 -2.8125 C 9.304688 -2.8125 9.585938 -2.84375 9.828125 -2.90625 C 10.179688 -3 10.476562 -3.085938 10.71875 -3.171875 C 10.96875 -3.265625 11.113281 -3.3125 11.15625 -3.3125 C 11.34375 -3.3125 11.4375 -3.25 11.4375 -3.125 Z M 5.765625 -3.09375 C 5.703125 -3.25 5.65625 -3.390625 5.625 -3.515625 C 5.59375 -3.640625 5.5625 -3.78125 5.53125 -3.9375 C 5.5 -4.125 5.472656 -4.300781 5.453125 -4.46875 C 5.441406 -4.644531 5.40625 -4.78125 5.34375 -4.875 C 5.15625 -4.832031 4.945312 -4.734375 4.71875 -4.578125 C 4.5 -4.429688 4.28125 -4.269531 4.0625 -4.09375 C 3.84375 -3.914062 3.632812 -3.734375 3.4375 -3.546875 C 3.238281 -3.367188 3.078125 -3.21875 2.953125 -3.09375 C 2.410156 -2.53125 1.96875 -2.019531 1.625 -1.5625 C 1.289062 -1.113281 1.125 -0.757812 1.125 -0.5 C 1.125 -0.375 1.144531 -0.238281 1.1875 -0.09375 C 1.238281 0.0507812 1.304688 0.125 1.390625 0.125 C 1.984375 0.125 2.796875 -0.300781 3.828125 -1.15625 C 4.085938 -1.375 4.398438 -1.65625 4.765625 -2 C 5.140625 -2.351562 5.472656 -2.71875 5.765625 -3.09375 Z M 5.765625 -3.09375 "/></g></g></g><g fill="#000000" fill-opacity="1"><g transform="translate(119.708717, 20.721851)"><g><path d="M 10.640625 -2.703125 L 8.90625 -2.015625 C 8.207031 -1.753906 7.578125 -1.5 7.015625 -1.25 C 6.460938 -1.007812 5.9375 -0.78125 5.4375 -0.5625 C 4.96875 -0.34375 4.492188 -0.078125 4.015625 0.234375 C 3.546875 0.546875 2.921875 0.90625 2.140625 1.3125 C 1.734375 1.71875 1.195312 2.257812 0.53125 2.9375 C -0.125 3.625 -0.875 4.375 -1.71875 5.1875 C -2.101562 5.570312 -2.6875 6.160156 -3.46875 6.953125 C -4.25 7.742188 -5.273438 8.722656 -6.546875 9.890625 C -7.117188 10.441406 -7.691406 10.972656 -8.265625 11.484375 C -8.835938 12.003906 -9.4375 12.535156 -10.0625 13.078125 C -10.78125 13.703125 -11.414062 14.128906 -11.96875 14.359375 C -12.519531 14.585938 -13 14.703125 -13.40625 14.703125 C -13.550781 14.703125 -13.6875 14.617188 -13.8125 14.453125 C -13.945312 14.285156 -14.03125 14.117188 -14.0625 13.953125 C -14.175781 13.078125 -13 11.472656 -10.53125 9.140625 C -10.09375 8.734375 -9.5625 8.273438 -8.9375 7.765625 C -8.3125 7.265625 -7.59375 6.707031 -6.78125 6.09375 C -6.289062 5.738281 -5.769531 5.375 -5.21875 5 C -4.664062 4.625 -4.066406 4.253906 -3.421875 3.890625 C -2.421875 3.316406 -1.644531 2.875 -1.09375 2.5625 C -0.550781 2.25 -0.226562 2.050781 -0.125 1.96875 C 0.144531 1.71875 0.5 1.382812 0.9375 0.96875 C 1.375 0.5625 1.828125 0.128906 2.296875 -0.328125 C 2.703125 -0.722656 3.0625 -1.0625 3.375 -1.34375 C 3.6875 -1.632812 4.03125 -1.953125 4.40625 -2.296875 C 3.894531 -2.046875 3.382812 -1.847656 2.875 -1.703125 C 2.363281 -1.554688 1.929688 -1.484375 1.578125 -1.484375 C 1.179688 -1.484375 0.859375 -1.5625 0.609375 -1.71875 C 0.253906 -1.90625 0.078125 -2.160156 0.078125 -2.484375 C 0.078125 -2.753906 0.15625 -3.09375 0.3125 -3.5 C 0.46875 -3.914062 0.6875 -4.304688 0.96875 -4.671875 C 1.164062 -4.953125 1.394531 -5.195312 1.65625 -5.40625 C 1.925781 -5.613281 2.203125 -5.796875 2.484375 -5.953125 C 2.765625 -6.109375 3.039062 -6.222656 3.3125 -6.296875 C 3.59375 -6.378906 3.828125 -6.421875 4.015625 -6.421875 C 4.117188 -6.421875 4.222656 -6.335938 4.328125 -6.171875 C 4.429688 -6.015625 4.46875 -5.847656 4.4375 -5.671875 C 4.40625 -5.515625 4.332031 -5.394531 4.21875 -5.3125 C 4.113281 -5.238281 3.984375 -5.164062 3.828125 -5.09375 C 3.679688 -5.03125 3.507812 -4.953125 3.3125 -4.859375 C 3.125 -4.773438 2.921875 -4.648438 2.703125 -4.484375 C 2.523438 -4.359375 2.363281 -4.207031 2.21875 -4.03125 C 2.070312 -3.863281 1.9375 -3.695312 1.8125 -3.53125 C 1.695312 -3.363281 1.609375 -3.207031 1.546875 -3.0625 C 1.484375 -2.914062 1.453125 -2.800781 1.453125 -2.71875 C 1.453125 -2.59375 1.457031 -2.441406 1.46875 -2.265625 C 1.488281 -2.097656 1.609375 -2.015625 1.828125 -2.015625 C 2.191406 -2.015625 2.617188 -2.109375 3.109375 -2.296875 C 3.597656 -2.484375 4.140625 -2.734375 4.734375 -3.046875 C 5.035156 -3.222656 5.3125 -3.410156 5.5625 -3.609375 C 5.820312 -3.816406 6.109375 -4.035156 6.421875 -4.265625 C 6.515625 -4.328125 6.640625 -4.398438 6.796875 -4.484375 C 6.953125 -4.578125 7.109375 -4.660156 7.265625 -4.734375 C 7.421875 -4.816406 7.566406 -4.882812 7.703125 -4.9375 C 7.835938 -4.988281 7.925781 -5.015625 7.96875 -5.015625 C 8.175781 -5.015625 8.28125 -4.835938 8.28125 -4.484375 C 8.28125 -4.242188 8.164062 -4.039062 7.9375 -3.875 C 7.707031 -3.71875 7.367188 -3.4375 6.921875 -3.03125 C 6.648438 -2.789062 6.367188 -2.539062 6.078125 -2.28125 C 5.796875 -2.03125 5.519531 -1.785156 5.25 -1.546875 C 4.988281 -1.316406 4.765625 -1.109375 4.578125 -0.921875 C 4.390625 -0.742188 4.269531 -0.625 4.21875 -0.5625 C 4.457031 -0.675781 4.75 -0.8125 5.09375 -0.96875 C 5.445312 -1.132812 5.832031 -1.3125 6.25 -1.5 C 6.675781 -1.6875 7.125 -1.875 7.59375 -2.0625 C 8.0625 -2.25 8.539062 -2.429688 9.03125 -2.609375 C 9.476562 -2.773438 9.921875 -2.9375 10.359375 -3.09375 C 10.796875 -3.25 11.09375 -3.328125 11.25 -3.328125 C 11.46875 -3.328125 11.578125 -3.234375 11.578125 -3.046875 Z M -1.875 3.734375 C -2.082031 3.828125 -2.335938 3.957031 -2.640625 4.125 C -2.941406 4.300781 -3.28125 4.503906 -3.65625 4.734375 C -4.03125 4.972656 -4.429688 5.234375 -4.859375 5.515625 C -5.296875 5.804688 -5.738281 6.117188 -6.1875 6.453125 C -6.519531 6.679688 -6.875 6.9375 -7.25 7.21875 C -7.625 7.5 -7.984375 7.773438 -8.328125 8.046875 C -8.679688 8.328125 -9.007812 8.59375 -9.3125 8.84375 C -9.625 9.101562 -9.875 9.328125 -10.0625 9.515625 C -10.28125 9.734375 -10.46875 9.921875 -10.625 10.078125 C -10.78125 10.234375 -10.921875 10.378906 -11.046875 10.515625 C -11.179688 10.660156 -11.316406 10.804688 -11.453125 10.953125 C -11.597656 11.109375 -11.765625 11.285156 -11.953125 11.484375 C -12.316406 11.910156 -12.617188 12.296875 -12.859375 12.640625 C -13.097656 12.984375 -13.21875 13.191406 -13.21875 13.265625 C -13.21875 13.503906 -13.148438 13.625 -13.015625 13.625 C -12.929688 13.625 -12.785156 13.5625 -12.578125 13.4375 C -12.367188 13.3125 -12.132812 13.15625 -11.875 12.96875 C -11.613281 12.78125 -11.347656 12.578125 -11.078125 12.359375 C -10.804688 12.148438 -10.566406 11.960938 -10.359375 11.796875 C -9.785156 11.296875 -9.210938 10.757812 -8.640625 10.1875 C -8.066406 9.613281 -7.484375 9.054688 -6.890625 8.515625 C -6.128906 7.804688 -5.5 7.226562 -5 6.78125 C -4.5 6.34375 -4.144531 6.019531 -3.9375 5.8125 C -3.46875 5.375 -3.03125 4.957031 -2.625 4.5625 C -2.21875 4.164062 -1.96875 3.890625 -1.875 3.734375 Z M -1.875 3.734375 "/></g></g></g><g fill="#000000" fill-opacity="1"><g transform="translate(128.917647, 20.721851)"><g><path d="M 7.875 -1.78125 C 7.875 -1.707031 7.691406 -1.578125 7.328125 -1.390625 C 6.972656 -1.210938 6.46875 -1 5.8125 -0.75 C 5.113281 -0.46875 4.5 -0.25 3.96875 -0.09375 C 3.445312 0.0507812 2.953125 0.125 2.484375 0.125 C 2.109375 0.125 1.753906 0.0703125 1.421875 -0.03125 C 1.097656 -0.132812 0.816406 -0.265625 0.578125 -0.421875 C 0.335938 -0.578125 0.144531 -0.753906 0 -0.953125 C -0.144531 -1.160156 -0.21875 -1.359375 -0.21875 -1.546875 C -0.21875 -1.941406 -0.0664062 -2.34375 0.234375 -2.75 C 0.546875 -3.164062 1.03125 -3.65625 1.6875 -4.21875 C 2.050781 -4.53125 2.425781 -4.820312 2.8125 -5.09375 C 3.207031 -5.375 3.625 -5.65625 4.0625 -5.9375 C 4.46875 -6.195312 4.828125 -6.390625 5.140625 -6.515625 C 5.453125 -6.640625 5.65625 -6.703125 5.75 -6.703125 C 6.25 -6.703125 6.5 -6.5 6.5 -6.09375 C 6.5 -5.5 5.816406 -4.726562 4.453125 -3.78125 C 3.441406 -3.0625 2.582031 -2.519531 1.875 -2.15625 C 1.65625 -2 1.472656 -1.832031 1.328125 -1.65625 C 1.191406 -1.488281 1.125 -1.34375 1.125 -1.21875 C 1.125 -1.019531 1.253906 -0.84375 1.515625 -0.6875 C 1.785156 -0.539062 2.171875 -0.46875 2.671875 -0.46875 C 3.347656 -0.46875 4.316406 -0.71875 5.578125 -1.21875 C 6.203125 -1.46875 6.6875 -1.671875 7.03125 -1.828125 C 7.375 -1.984375 7.5625 -2.0625 7.59375 -2.0625 C 7.738281 -2.0625 7.820312 -2.039062 7.84375 -2 C 7.863281 -1.96875 7.875 -1.894531 7.875 -1.78125 Z M 7.875 -1.78125 "/></g></g></g><g clip-path="url(#9878e5e8a2)"><g fill="#000000" fill-opacity="1"><g transform="translate(135.689619, 20.721851)"><g><path d="M 10.71875 -2.421875 C 10.71875 -2.359375 10.609375 -2.257812 10.390625 -2.125 C 10.171875 -1.988281 9.894531 -1.84375 9.5625 -1.6875 C 9.238281 -1.53125 8.878906 -1.363281 8.484375 -1.1875 C 8.097656 -1.019531 7.738281 -0.875 7.40625 -0.75 C 7.03125 -0.613281 6.65625 -0.484375 6.28125 -0.359375 C 5.90625 -0.234375 5.640625 -0.15625 5.484375 -0.125 C 4.921875 0.0390625 4.210938 0.125 3.359375 0.125 C 3.234375 0.125 3.09375 0.109375 2.9375 0.078125 C 2.78125 0.0546875 2.597656 -0.0078125 2.390625 -0.125 C 2.160156 -0.257812 1.957031 -0.414062 1.78125 -0.59375 C 1.613281 -0.78125 1.53125 -1.003906 1.53125 -1.265625 C 1.53125 -1.390625 1.59375 -1.5625 1.71875 -1.78125 C 1.851562 -2 2.078125 -2.28125 2.390625 -2.625 C 2.734375 -2.988281 3.023438 -3.269531 3.265625 -3.46875 C 3.515625 -3.675781 3.753906 -3.890625 3.984375 -4.109375 C 3.765625 -4.203125 3.628906 -4.300781 3.578125 -4.40625 C 3.523438 -4.519531 3.457031 -4.660156 3.375 -4.828125 C 3.332031 -4.890625 3.304688 -4.96875 3.296875 -5.0625 C 3.285156 -5.15625 3.273438 -5.238281 3.265625 -5.3125 C 3.265625 -5.382812 3.253906 -5.445312 3.234375 -5.5 C 3.222656 -5.550781 3.191406 -5.578125 3.140625 -5.578125 C 2.984375 -5.578125 2.78125 -5.46875 2.53125 -5.25 C 2.28125 -5.03125 2.03125 -4.8125 1.78125 -4.59375 C 1.457031 -4.28125 1.144531 -3.945312 0.84375 -3.59375 C 0.769531 -3.5 0.691406 -3.40625 0.609375 -3.3125 C 0.535156 -3.21875 0.457031 -3.113281 0.375 -3 C 0.238281 -2.96875 0.148438 -2.9375 0.109375 -2.90625 C 0.0664062 -2.875 0.046875 -2.984375 0.046875 -3.234375 C 0.046875 -3.285156 0.09375 -3.375 0.1875 -3.5 C 0.28125 -3.632812 0.398438 -3.785156 0.546875 -3.953125 C 0.703125 -4.128906 0.863281 -4.304688 1.03125 -4.484375 C 1.207031 -4.671875 1.375 -4.84375 1.53125 -5 C 1.6875 -5.15625 1.851562 -5.3125 2.03125 -5.46875 C 2.207031 -5.632812 2.378906 -5.785156 2.546875 -5.921875 C 2.722656 -6.066406 2.878906 -6.179688 3.015625 -6.265625 C 3.160156 -6.359375 3.273438 -6.40625 3.359375 -6.40625 C 3.578125 -6.40625 3.726562 -6.359375 3.8125 -6.265625 C 3.894531 -6.171875 3.953125 -6.050781 3.984375 -5.90625 C 4.015625 -5.8125 4.015625 -5.703125 3.984375 -5.578125 C 3.953125 -5.453125 3.953125 -5.328125 3.984375 -5.203125 C 4.035156 -5.046875 4.109375 -4.894531 4.203125 -4.75 C 4.304688 -4.613281 4.4375 -4.546875 4.59375 -4.546875 C 4.71875 -4.546875 4.90625 -4.609375 5.15625 -4.734375 C 5.40625 -4.859375 5.671875 -4.984375 5.953125 -5.109375 C 6.234375 -5.234375 6.472656 -5.359375 6.671875 -5.484375 C 6.867188 -5.609375 7.050781 -5.671875 7.21875 -5.671875 C 7.488281 -5.671875 7.675781 -5.609375 7.78125 -5.484375 C 7.894531 -5.359375 7.953125 -5.15625 7.953125 -4.875 C 7.953125 -4.625 7.675781 -4.367188 7.125 -4.109375 C 6.8125 -3.984375 6.503906 -3.898438 6.203125 -3.859375 C 5.910156 -3.816406 5.609375 -3.734375 5.296875 -3.609375 C 5.078125 -3.453125 4.835938 -3.257812 4.578125 -3.03125 C 4.328125 -2.8125 4.085938 -2.582031 3.859375 -2.34375 C 3.628906 -2.113281 3.4375 -1.898438 3.28125 -1.703125 C 3.125 -1.503906 3.046875 -1.359375 3.046875 -1.265625 C 3.046875 -1.160156 3.097656 -1.007812 3.203125 -0.8125 C 3.304688 -0.613281 3.441406 -0.515625 3.609375 -0.515625 C 4.222656 -0.515625 4.816406 -0.582031 5.390625 -0.71875 C 5.972656 -0.851562 6.613281 -1.035156 7.3125 -1.265625 C 7.613281 -1.359375 7.929688 -1.484375 8.265625 -1.640625 C 8.597656 -1.796875 8.910156 -1.941406 9.203125 -2.078125 C 9.492188 -2.222656 9.742188 -2.347656 9.953125 -2.453125 C 10.160156 -2.566406 10.296875 -2.625 10.359375 -2.625 C 10.597656 -2.625 10.71875 -2.554688 10.71875 -2.421875 Z M 10.71875 -2.421875 "/></g></g></g></g></g></g></g></svg>