<svg xmlns="http://www.w3.org/2000/svg" xmlns:xlink="http://www.w3.org/1999/xlink" zoomAndPan="magnify" preserveAspectRatio="xMidYMid meet" version="1.0" viewBox="1.43 0 147.13 36.78"><defs><g/><clipPath id="54f7c0feca"><path d="M 1.433594 0 L 148.5625 0 L 148.5625 36.78125 L 1.433594 36.78125 Z M 1.433594 0 " clip-rule="nonzero"/></clipPath><clipPath id="047e6d41b7"><path d="M 1.433594 2 L 148.5625 2 L 148.5625 36.78125 L 1.433594 36.78125 Z M 1.433594 2 " clip-rule="nonzero"/></clipPath><clipPath id="bfb3d98ee1"><path d="M 0.433594 3 L 107 3 L 107 31 L 0.433594 31 Z M 0.433594 3 " clip-rule="nonzero"/></clipPath><clipPath id="fd4c51178b"><rect x="0" width="107" y="0" height="28"/></clipPath><clipPath id="0bd258bf73"><path d="M 107 0.589844 L 147.5625 0.589844 L 147.5625 34.78125 L 107 34.78125 Z M 107 0.589844 " clip-rule="nonzero"/></clipPath><clipPath id="509dd1271d"><path d="M 0.308594 2 L 27 2 L 27 27 L 0.308594 27 Z M 0.308594 2 " clip-rule="nonzero"/></clipPath><clipPath id="9ba15a1c9a"><path d="M 24 6 L 40.5625 6 L 40.5625 24 L 24 24 Z M 24 6 " clip-rule="nonzero"/></clipPath><clipPath id="b963ac6896"><rect x="0" width="41" y="0" height="35"/></clipPath><clipPath id="520b6bb8d7"><rect x="0" width="148" y="0" height="35"/></clipPath></defs><g clip-path="url(#54f7c0feca)"><path fill="#ffffff" d="M 1.433594 0 L 148.566406 0 L 148.566406 36.78125 L 1.433594 36.78125 Z M 1.433594 0 " fill-opacity="1" fill-rule="nonzero"/><path fill="#ffffff" d="M 1.433594 0 L 148.566406 0 L 148.566406 36.78125 L 1.433594 36.78125 Z M 1.433594 0 " fill-opacity="1" fill-rule="nonzero"/></g><g clip-path="url(#047e6d41b7)"><g transform="matrix(1, 0, 0, 1, 1, 2)"><g clip-path="url(#520b6bb8d7)"><g clip-path="url(#bfb3d98ee1)"><g transform="matrix(1, 0, 0, 1, 0, 3)"><g clip-path="url(#fd4c51178b)"><g fill="#000000" fill-opacity="1"><g transform="translate(0.434783, 20.589876)"><g><path d="M 15.9375 -0.265625 C 15.976562 -0.265625 16 -0.21875 16 -0.125 C 16 -0.0390625 15.976562 0 15.9375 0 C 15.476562 0 15.117188 -0.00390625 14.859375 -0.015625 L 13.328125 -0.046875 L 11.703125 -0.015625 C 11.453125 -0.00390625 11.101562 0 10.65625 0 C 10.613281 0 10.59375 -0.0390625 10.59375 -0.125 C 10.59375 -0.21875 10.613281 -0.265625 10.65625 -0.265625 C 11.238281 -0.265625 11.660156 -0.300781 11.921875 -0.375 C 12.179688 -0.445312 12.359375 -0.585938 12.453125 -0.796875 C 12.554688 -1.015625 12.609375 -1.34375 12.609375 -1.78125 L 12.609375 -6.953125 L 4.125 -6.953125 L 4.125 -1.78125 C 4.125 -1.34375 4.171875 -1.015625 4.265625 -0.796875 C 4.367188 -0.585938 4.550781 -0.445312 4.8125 -0.375 C 5.070312 -0.300781 5.492188 -0.265625 6.078125 -0.265625 C 6.097656 -0.265625 6.109375 -0.21875 6.109375 -0.125 C 6.109375 -0.0390625 6.097656 0 6.078125 0 C 5.617188 0 5.253906 -0.00390625 4.984375 -0.015625 L 3.40625 -0.046875 L 1.875 -0.015625 C 1.613281 -0.00390625 1.242188 0 0.765625 0 C 0.742188 0 0.734375 -0.0390625 0.734375 -0.125 C 0.734375 -0.21875 0.742188 -0.265625 0.765625 -0.265625 C 1.328125 -0.265625 1.742188 -0.300781 2.015625 -0.375 C 2.285156 -0.445312 2.46875 -0.585938 2.5625 -0.796875 C 2.664062 -1.015625 2.71875 -1.34375 2.71875 -1.78125 L 2.71875 -12.015625 C 2.71875 -12.453125 2.664062 -12.773438 2.5625 -12.984375 C 2.46875 -13.191406 2.289062 -13.332031 2.03125 -13.40625 C 1.769531 -13.488281 1.359375 -13.53125 0.796875 -13.53125 C 0.765625 -13.53125 0.75 -13.570312 0.75 -13.65625 C 0.75 -13.75 0.765625 -13.796875 0.796875 -13.796875 L 1.921875 -13.78125 C 2.535156 -13.75 3.03125 -13.734375 3.40625 -13.734375 C 3.832031 -13.734375 4.367188 -13.75 5.015625 -13.78125 L 6.078125 -13.796875 C 6.097656 -13.796875 6.109375 -13.75 6.109375 -13.65625 C 6.109375 -13.570312 6.097656 -13.53125 6.078125 -13.53125 C 5.515625 -13.53125 5.097656 -13.484375 4.828125 -13.390625 C 4.554688 -13.304688 4.367188 -13.15625 4.265625 -12.9375 C 4.171875 -12.726562 4.125 -12.40625 4.125 -11.96875 L 4.125 -7.421875 L 12.609375 -7.421875 L 12.609375 -11.96875 C 12.609375 -12.40625 12.554688 -12.726562 12.453125 -12.9375 C 12.359375 -13.15625 12.179688 -13.304688 11.921875 -13.390625 C 11.660156 -13.484375 11.238281 -13.53125 10.65625 -13.53125 C 10.613281 -13.53125 10.59375 -13.570312 10.59375 -13.65625 C 10.59375 -13.75 10.613281 -13.796875 10.65625 -13.796875 L 11.703125 -13.78125 C 12.347656 -13.75 12.890625 -13.734375 13.328125 -13.734375 C 13.734375 -13.734375 14.242188 -13.75 14.859375 -13.78125 L 15.9375 -13.796875 C 15.976562 -13.796875 16 -13.75 16 -13.65625 C 16 -13.570312 15.976562 -13.53125 15.9375 -13.53125 C 15.375 -13.53125 14.960938 -13.488281 14.703125 -13.40625 C 14.441406 -13.332031 14.257812 -13.191406 14.15625 -12.984375 C 14.0625 -12.773438 14.015625 -12.453125 14.015625 -12.015625 L 14.015625 -1.78125 C 14.015625 -1.34375 14.0625 -1.015625 14.15625 -0.796875 C 14.257812 -0.585938 14.441406 -0.445312 14.703125 -0.375 C 14.960938 -0.300781 15.375 -0.265625 15.9375 -0.265625 Z M 15.9375 -0.265625 "/></g></g></g><g fill="#000000" fill-opacity="1"><g transform="translate(17.191142, 20.589876)"><g><path d="M 10.484375 -3.296875 C 10.484375 -3.316406 10.515625 -3.328125 10.578125 -3.328125 C 10.617188 -3.328125 10.65625 -3.320312 10.6875 -3.3125 C 10.726562 -3.300781 10.75 -3.28125 10.75 -3.25 C 10.613281 -2.320312 10.546875 -1.347656 10.546875 -0.328125 C 10.546875 -0.210938 10.519531 -0.128906 10.46875 -0.078125 C 10.425781 -0.0234375 10.335938 0 10.203125 0 L 0.953125 0 C 0.921875 0 0.90625 -0.0390625 0.90625 -0.125 C 0.90625 -0.21875 0.921875 -0.265625 0.953125 -0.265625 C 1.503906 -0.265625 1.910156 -0.300781 2.171875 -0.375 C 2.429688 -0.445312 2.609375 -0.585938 2.703125 -0.796875 C 2.796875 -1.015625 2.84375 -1.34375 2.84375 -1.78125 L 2.84375 -12.015625 C 2.84375 -12.453125 2.796875 -12.773438 2.703125 -12.984375 C 2.609375 -13.191406 2.429688 -13.332031 2.171875 -13.40625 C 1.910156 -13.488281 1.503906 -13.53125 0.953125 -13.53125 C 0.921875 -13.53125 0.90625 -13.570312 0.90625 -13.65625 C 0.90625 -13.75 0.921875 -13.796875 0.953125 -13.796875 L 9.828125 -13.796875 C 9.953125 -13.796875 10.015625 -13.726562 10.015625 -13.59375 L 10.0625 -10.890625 C 10.0625 -10.835938 10.023438 -10.804688 9.953125 -10.796875 C 9.878906 -10.796875 9.835938 -10.816406 9.828125 -10.859375 C 9.785156 -11.640625 9.550781 -12.242188 9.125 -12.671875 C 8.695312 -13.109375 8.128906 -13.328125 7.421875 -13.328125 L 6.078125 -13.328125 C 5.554688 -13.328125 5.171875 -13.285156 4.921875 -13.203125 C 4.679688 -13.128906 4.515625 -12.992188 4.421875 -12.796875 C 4.328125 -12.597656 4.28125 -12.300781 4.28125 -11.90625 L 4.28125 -7.421875 L 6.984375 -7.421875 C 7.679688 -7.421875 8.179688 -7.535156 8.484375 -7.765625 C 8.785156 -8.003906 8.9375 -8.40625 8.9375 -8.96875 C 8.9375 -9 8.976562 -9.015625 9.0625 -9.015625 C 9.15625 -9.015625 9.203125 -9 9.203125 -8.96875 L 9.1875 -7.171875 C 9.1875 -6.742188 9.191406 -6.421875 9.203125 -6.203125 L 9.234375 -5.140625 C 9.234375 -5.109375 9.1875 -5.09375 9.09375 -5.09375 C 9.007812 -5.09375 8.96875 -5.109375 8.96875 -5.140625 C 8.96875 -5.785156 8.804688 -6.25 8.484375 -6.53125 C 8.171875 -6.8125 7.644531 -6.953125 6.90625 -6.953125 L 4.28125 -6.953125 L 4.28125 -1.875 C 4.28125 -1.46875 4.320312 -1.164062 4.40625 -0.96875 C 4.5 -0.78125 4.660156 -0.648438 4.890625 -0.578125 C 5.128906 -0.503906 5.5 -0.46875 6 -0.46875 L 7.765625 -0.46875 C 8.472656 -0.46875 9.0625 -0.71875 9.53125 -1.21875 C 10.007812 -1.71875 10.328125 -2.410156 10.484375 -3.296875 Z M 10.484375 -3.296875 "/></g></g></g><g fill="#000000" fill-opacity="1"><g transform="translate(29.046432, 20.589876)"><g><path d="M 15.078125 -0.265625 C 15.109375 -0.265625 15.125 -0.21875 15.125 -0.125 C 15.125 -0.0390625 15.109375 0 15.078125 0 L 12.234375 0 C 11.859375 0 11.160156 -0.609375 10.140625 -1.828125 C 9.128906 -3.054688 7.925781 -4.734375 6.53125 -6.859375 C 6.132812 -6.773438 5.722656 -6.734375 5.296875 -6.734375 C 5.210938 -6.734375 4.882812 -6.753906 4.3125 -6.796875 L 4.3125 -1.78125 C 4.3125 -1.332031 4.351562 -1.003906 4.4375 -0.796875 C 4.519531 -0.585938 4.691406 -0.445312 4.953125 -0.375 C 5.210938 -0.300781 5.625 -0.265625 6.1875 -0.265625 C 6.226562 -0.265625 6.25 -0.21875 6.25 -0.125 C 6.25 -0.0390625 6.226562 0 6.1875 0 C 5.726562 0 5.363281 -0.00390625 5.09375 -0.015625 L 3.578125 -0.046875 L 2.078125 -0.015625 C 1.804688 -0.00390625 1.429688 0 0.953125 0 C 0.921875 0 0.90625 -0.0390625 0.90625 -0.125 C 0.90625 -0.21875 0.921875 -0.265625 0.953125 -0.265625 C 1.503906 -0.265625 1.910156 -0.300781 2.171875 -0.375 C 2.441406 -0.445312 2.625 -0.585938 2.71875 -0.796875 C 2.820312 -1.015625 2.875 -1.34375 2.875 -1.78125 L 2.875 -12.015625 C 2.875 -12.453125 2.828125 -12.773438 2.734375 -12.984375 C 2.648438 -13.191406 2.476562 -13.332031 2.21875 -13.40625 C 1.957031 -13.488281 1.550781 -13.53125 1 -13.53125 C 0.945312 -13.53125 0.921875 -13.570312 0.921875 -13.65625 C 0.921875 -13.75 0.945312 -13.796875 1 -13.796875 L 2.078125 -13.78125 C 2.691406 -13.75 3.191406 -13.734375 3.578125 -13.734375 C 3.898438 -13.734375 4.203125 -13.738281 4.484375 -13.75 C 4.765625 -13.769531 5 -13.785156 5.1875 -13.796875 C 5.726562 -13.835938 6.222656 -13.859375 6.671875 -13.859375 C 7.828125 -13.859375 8.722656 -13.59375 9.359375 -13.0625 C 9.992188 -12.539062 10.3125 -11.835938 10.3125 -10.953125 C 10.3125 -10.160156 10.078125 -9.441406 9.609375 -8.796875 C 9.148438 -8.160156 8.535156 -7.65625 7.765625 -7.28125 C 9.003906 -5.5 10.046875 -4.101562 10.890625 -3.09375 C 11.742188 -2.09375 12.492188 -1.367188 13.140625 -0.921875 C 13.796875 -0.484375 14.441406 -0.265625 15.078125 -0.265625 Z M 4.3125 -7.328125 C 4.675781 -7.265625 5.109375 -7.234375 5.609375 -7.234375 C 6.753906 -7.234375 7.570312 -7.484375 8.0625 -7.984375 C 8.5625 -8.492188 8.8125 -9.269531 8.8125 -10.3125 C 8.8125 -11.457031 8.554688 -12.28125 8.046875 -12.78125 C 7.535156 -13.28125 6.796875 -13.53125 5.828125 -13.53125 C 5.253906 -13.53125 4.859375 -13.425781 4.640625 -13.21875 C 4.421875 -13.019531 4.3125 -12.601562 4.3125 -11.96875 Z M 4.3125 -7.328125 "/></g></g></g><g fill="#000000" fill-opacity="1"><g transform="translate(43.90418, 20.589876)"><g><path d="M 4.390625 -1.78125 C 4.390625 -1.34375 4.429688 -1.015625 4.515625 -0.796875 C 4.609375 -0.585938 4.785156 -0.445312 5.046875 -0.375 C 5.304688 -0.300781 5.710938 -0.265625 6.265625 -0.265625 C 6.316406 -0.265625 6.34375 -0.21875 6.34375 -0.125 C 6.34375 -0.0390625 6.316406 0 6.265625 0 C 5.828125 0 5.472656 -0.00390625 5.203125 -0.015625 L 3.640625 -0.046875 L 2.125 -0.015625 C 1.851562 -0.00390625 1.488281 0 1.03125 0 C 0.988281 0 0.96875 -0.0390625 0.96875 -0.125 C 0.96875 -0.21875 0.988281 -0.265625 1.03125 -0.265625 C 1.59375 -0.265625 2.003906 -0.300781 2.265625 -0.375 C 2.523438 -0.445312 2.703125 -0.585938 2.796875 -0.796875 C 2.890625 -1.015625 2.9375 -1.34375 2.9375 -1.78125 L 2.9375 -12.015625 C 2.9375 -12.453125 2.890625 -12.773438 2.796875 -12.984375 C 2.703125 -13.191406 2.523438 -13.332031 2.265625 -13.40625 C 2.003906 -13.488281 1.59375 -13.53125 1.03125 -13.53125 C 0.988281 -13.53125 0.96875 -13.570312 0.96875 -13.65625 C 0.96875 -13.75 0.988281 -13.796875 1.03125 -13.796875 L 2.125 -13.78125 C 2.738281 -13.75 3.242188 -13.734375 3.640625 -13.734375 C 4.085938 -13.734375 4.617188 -13.75 5.234375 -13.78125 L 6.265625 -13.796875 C 6.316406 -13.796875 6.34375 -13.75 6.34375 -13.65625 C 6.34375 -13.570312 6.316406 -13.53125 6.265625 -13.53125 C 5.722656 -13.53125 5.320312 -13.484375 5.0625 -13.390625 C 4.8125 -13.304688 4.632812 -13.15625 4.53125 -12.9375 C 4.4375 -12.726562 4.390625 -12.40625 4.390625 -11.96875 Z M 4.390625 -1.78125 "/></g></g></g><g fill="#000000" fill-opacity="1"><g transform="translate(51.23371, 20.589876)"><g><path d="M 4.171875 -13.40625 C 3.242188 -13.40625 2.546875 -13.164062 2.078125 -12.6875 C 1.617188 -12.21875 1.285156 -11.414062 1.078125 -10.28125 C 1.078125 -10.257812 1.035156 -10.25 0.953125 -10.25 C 0.878906 -10.25 0.84375 -10.257812 0.84375 -10.28125 C 0.894531 -10.8125 0.957031 -11.503906 1.03125 -12.359375 C 1.101562 -13.210938 1.140625 -13.851562 1.140625 -14.28125 C 1.140625 -14.351562 1.179688 -14.390625 1.265625 -14.390625 C 1.347656 -14.390625 1.390625 -14.351562 1.390625 -14.28125 C 1.390625 -13.957031 1.785156 -13.796875 2.578125 -13.796875 C 3.828125 -13.753906 5.304688 -13.734375 7.015625 -13.734375 C 7.890625 -13.734375 8.8125 -13.75 9.78125 -13.78125 L 11.28125 -13.796875 C 11.8125 -13.796875 12.203125 -13.832031 12.453125 -13.90625 C 12.710938 -13.976562 12.878906 -14.125 12.953125 -14.34375 C 12.972656 -14.40625 13.019531 -14.4375 13.09375 -14.4375 C 13.164062 -14.4375 13.203125 -14.40625 13.203125 -14.34375 C 13.160156 -13.914062 13.113281 -13.269531 13.0625 -12.40625 C 13.019531 -11.539062 13 -10.832031 13 -10.28125 C 13 -10.257812 12.953125 -10.25 12.859375 -10.25 C 12.773438 -10.25 12.734375 -10.257812 12.734375 -10.28125 C 12.691406 -11.4375 12.457031 -12.242188 12.03125 -12.703125 C 11.601562 -13.171875 10.894531 -13.40625 9.90625 -13.40625 C 9.25 -13.40625 8.78125 -13.375 8.5 -13.3125 C 8.21875 -13.25 8.023438 -13.125 7.921875 -12.9375 C 7.816406 -12.75 7.765625 -12.425781 7.765625 -11.96875 L 7.765625 -1.78125 C 7.765625 -1.332031 7.816406 -1.003906 7.921875 -0.796875 C 8.023438 -0.585938 8.222656 -0.445312 8.515625 -0.375 C 8.816406 -0.300781 9.28125 -0.265625 9.90625 -0.265625 C 9.957031 -0.265625 9.984375 -0.21875 9.984375 -0.125 C 9.984375 -0.0390625 9.957031 0 9.90625 0 C 9.425781 0 9.039062 -0.00390625 8.75 -0.015625 L 7.015625 -0.046875 L 5.359375 -0.015625 C 5.066406 -0.00390625 4.664062 0 4.15625 0 C 4.125 0 4.109375 -0.0390625 4.109375 -0.125 C 4.109375 -0.21875 4.125 -0.265625 4.15625 -0.265625 C 4.78125 -0.265625 5.238281 -0.300781 5.53125 -0.375 C 5.832031 -0.445312 6.035156 -0.585938 6.140625 -0.796875 C 6.253906 -1.015625 6.3125 -1.34375 6.3125 -1.78125 L 6.3125 -12.015625 C 6.3125 -12.460938 6.257812 -12.78125 6.15625 -12.96875 C 6.050781 -13.15625 5.859375 -13.273438 5.578125 -13.328125 C 5.304688 -13.378906 4.835938 -13.40625 4.171875 -13.40625 Z M 4.171875 -13.40625 "/></g></g></g><g fill="#000000" fill-opacity="1"><g transform="translate(63.685084, 20.589876)"><g><path d="M 15.4375 -0.265625 C 15.488281 -0.265625 15.515625 -0.21875 15.515625 -0.125 C 15.515625 -0.0390625 15.488281 0 15.4375 0 C 15.15625 0 14.71875 -0.015625 14.125 -0.046875 C 13.539062 -0.078125 13.113281 -0.09375 12.84375 -0.09375 C 12.519531 -0.09375 12.109375 -0.078125 11.609375 -0.046875 C 11.140625 -0.015625 10.78125 0 10.53125 0 C 10.46875 0 10.4375 -0.0390625 10.4375 -0.125 C 10.4375 -0.21875 10.46875 -0.265625 10.53125 -0.265625 C 11.070312 -0.265625 11.46875 -0.316406 11.71875 -0.421875 C 11.96875 -0.523438 12.09375 -0.703125 12.09375 -0.953125 C 12.09375 -1.160156 12 -1.476562 11.8125 -1.90625 L 9.84375 -6.078125 L 4.59375 -6.078125 L 3.203125 -2.796875 C 2.992188 -2.296875 2.890625 -1.894531 2.890625 -1.59375 C 2.890625 -1.132812 3.066406 -0.796875 3.421875 -0.578125 C 3.785156 -0.367188 4.332031 -0.265625 5.0625 -0.265625 C 5.132812 -0.265625 5.171875 -0.21875 5.171875 -0.125 C 5.171875 -0.0390625 5.132812 0 5.0625 0 C 4.789062 0 4.40625 -0.015625 3.90625 -0.046875 C 3.34375 -0.078125 2.859375 -0.09375 2.453125 -0.09375 C 2.066406 -0.09375 1.625 -0.078125 1.125 -0.046875 C 0.6875 -0.015625 0.316406 0 0.015625 0 C -0.0546875 0 -0.09375 -0.0390625 -0.09375 -0.125 C -0.09375 -0.21875 -0.0546875 -0.265625 0.015625 -0.265625 C 0.429688 -0.265625 0.78125 -0.34375 1.0625 -0.5 C 1.351562 -0.65625 1.628906 -0.925781 1.890625 -1.3125 C 2.148438 -1.707031 2.429688 -2.269531 2.734375 -3 L 7.390625 -14 C 7.421875 -14.039062 7.472656 -14.0625 7.546875 -14.0625 C 7.617188 -14.0625 7.664062 -14.039062 7.6875 -14 L 12.890625 -3.03125 C 13.390625 -1.9375 13.816406 -1.203125 14.171875 -0.828125 C 14.523438 -0.453125 14.945312 -0.265625 15.4375 -0.265625 Z M 4.765625 -6.515625 L 9.640625 -6.515625 L 7.0625 -11.96875 Z M 4.765625 -6.515625 "/></g></g></g><g fill="#000000" fill-opacity="1"><g transform="translate(78.918142, 20.589876)"><g><path d="M 9.015625 0.265625 C 7.390625 0.265625 5.976562 -0.0546875 4.78125 -0.703125 C 3.582031 -1.347656 2.664062 -2.222656 2.03125 -3.328125 C 1.394531 -4.429688 1.078125 -5.648438 1.078125 -6.984375 C 1.078125 -8.410156 1.4375 -9.65625 2.15625 -10.71875 C 2.882812 -11.78125 3.875 -12.597656 5.125 -13.171875 C 6.382812 -13.753906 7.796875 -14.046875 9.359375 -14.046875 C 10.140625 -14.046875 10.875 -13.96875 11.5625 -13.8125 C 12.257812 -13.664062 12.835938 -13.457031 13.296875 -13.1875 C 13.410156 -13.125 13.472656 -13.066406 13.484375 -13.015625 C 13.503906 -12.972656 13.519531 -12.863281 13.53125 -12.6875 L 13.796875 -10.09375 C 13.796875 -10.039062 13.753906 -10.007812 13.671875 -10 C 13.597656 -9.988281 13.550781 -10.007812 13.53125 -10.0625 C 12.851562 -12.476562 11.320312 -13.6875 8.9375 -13.6875 C 7.78125 -13.6875 6.734375 -13.425781 5.796875 -12.90625 C 4.859375 -12.382812 4.117188 -11.640625 3.578125 -10.671875 C 3.046875 -9.710938 2.78125 -8.59375 2.78125 -7.3125 C 2.78125 -6.0625 3.035156 -4.882812 3.546875 -3.78125 C 4.066406 -2.675781 4.84375 -1.78125 5.875 -1.09375 C 6.90625 -0.40625 8.148438 -0.0625 9.609375 -0.0625 C 10.648438 -0.0625 11.382812 -0.265625 11.8125 -0.671875 C 12.238281 -1.078125 12.453125 -1.773438 12.453125 -2.765625 C 12.453125 -3.523438 12.40625 -4.054688 12.3125 -4.359375 C 12.21875 -4.660156 12.003906 -4.863281 11.671875 -4.96875 C 11.335938 -5.070312 10.757812 -5.125 9.9375 -5.125 C 9.84375 -5.125 9.796875 -5.179688 9.796875 -5.296875 C 9.796875 -5.335938 9.804688 -5.375 9.828125 -5.40625 C 9.859375 -5.445312 9.882812 -5.46875 9.90625 -5.46875 C 11.0625 -5.394531 11.988281 -5.359375 12.6875 -5.359375 C 13.363281 -5.359375 14.09375 -5.382812 14.875 -5.4375 C 14.90625 -5.4375 14.929688 -5.414062 14.953125 -5.375 C 14.972656 -5.34375 14.984375 -5.3125 14.984375 -5.28125 C 14.984375 -5.175781 14.945312 -5.125 14.875 -5.125 C 14.507812 -5.132812 14.253906 -5.082031 14.109375 -4.96875 C 13.972656 -4.863281 13.882812 -4.644531 13.84375 -4.3125 C 13.800781 -3.976562 13.78125 -3.382812 13.78125 -2.53125 C 13.78125 -1.875 13.804688 -1.40625 13.859375 -1.125 C 13.910156 -0.84375 13.9375 -0.664062 13.9375 -0.59375 C 13.9375 -0.507812 13.921875 -0.453125 13.890625 -0.421875 C 13.859375 -0.390625 13.789062 -0.359375 13.6875 -0.328125 C 11.863281 0.0664062 10.304688 0.265625 9.015625 0.265625 Z M 9.015625 0.265625 "/></g></g></g><g fill="#000000" fill-opacity="1"><g transform="translate(94.681042, 20.589876)"><g><path d="M 10.484375 -3.296875 C 10.484375 -3.316406 10.515625 -3.328125 10.578125 -3.328125 C 10.617188 -3.328125 10.65625 -3.320312 10.6875 -3.3125 C 10.726562 -3.300781 10.75 -3.28125 10.75 -3.25 C 10.613281 -2.320312 10.546875 -1.347656 10.546875 -0.328125 C 10.546875 -0.210938 10.519531 -0.128906 10.46875 -0.078125 C 10.425781 -0.0234375 10.335938 0 10.203125 0 L 0.953125 0 C 0.921875 0 0.90625 -0.0390625 0.90625 -0.125 C 0.90625 -0.21875 0.921875 -0.265625 0.953125 -0.265625 C 1.503906 -0.265625 1.910156 -0.300781 2.171875 -0.375 C 2.429688 -0.445312 2.609375 -0.585938 2.703125 -0.796875 C 2.796875 -1.015625 2.84375 -1.34375 2.84375 -1.78125 L 2.84375 -12.015625 C 2.84375 -12.453125 2.796875 -12.773438 2.703125 -12.984375 C 2.609375 -13.191406 2.429688 -13.332031 2.171875 -13.40625 C 1.910156 -13.488281 1.503906 -13.53125 0.953125 -13.53125 C 0.921875 -13.53125 0.90625 -13.570312 0.90625 -13.65625 C 0.90625 -13.75 0.921875 -13.796875 0.953125 -13.796875 L 9.828125 -13.796875 C 9.953125 -13.796875 10.015625 -13.726562 10.015625 -13.59375 L 10.0625 -10.890625 C 10.0625 -10.835938 10.023438 -10.804688 9.953125 -10.796875 C 9.878906 -10.796875 9.835938 -10.816406 9.828125 -10.859375 C 9.785156 -11.640625 9.550781 -12.242188 9.125 -12.671875 C 8.695312 -13.109375 8.128906 -13.328125 7.421875 -13.328125 L 6.078125 -13.328125 C 5.554688 -13.328125 5.171875 -13.285156 4.921875 -13.203125 C 4.679688 -13.128906 4.515625 -12.992188 4.421875 -12.796875 C 4.328125 -12.597656 4.28125 -12.300781 4.28125 -11.90625 L 4.28125 -7.421875 L 6.984375 -7.421875 C 7.679688 -7.421875 8.179688 -7.535156 8.484375 -7.765625 C 8.785156 -8.003906 8.9375 -8.40625 8.9375 -8.96875 C 8.9375 -9 8.976562 -9.015625 9.0625 -9.015625 C 9.15625 -9.015625 9.203125 -9 9.203125 -8.96875 L 9.1875 -7.171875 C 9.1875 -6.742188 9.191406 -6.421875 9.203125 -6.203125 L 9.234375 -5.140625 C 9.234375 -5.109375 9.1875 -5.09375 9.09375 -5.09375 C 9.007812 -5.09375 8.96875 -5.109375 8.96875 -5.140625 C 8.96875 -5.785156 8.804688 -6.25 8.484375 -6.53125 C 8.171875 -6.8125 7.644531 -6.953125 6.90625 -6.953125 L 4.28125 -6.953125 L 4.28125 -1.875 C 4.28125 -1.46875 4.320312 -1.164062 4.40625 -0.96875 C 4.5 -0.78125 4.660156 -0.648438 4.890625 -0.578125 C 5.128906 -0.503906 5.5 -0.46875 6 -0.46875 L 7.765625 -0.46875 C 8.472656 -0.46875 9.0625 -0.71875 9.53125 -1.21875 C 10.007812 -1.71875 10.328125 -2.410156 10.484375 -3.296875 Z M 10.484375 -3.296875 "/></g></g></g></g></g></g><g clip-path="url(#0bd258bf73)"><g transform="matrix(1, 0, 0, 1, 107, -0.000000000000003997)"><g clip-path="url(#b963ac6896)"><g clip-path="url(#509dd1271d)"><g fill="#000000" fill-opacity="1"><g transform="translate(0.44344, 23.723201)"><g><path d="M 6.03125 2.359375 C 6.519531 2.359375 7.035156 1.816406 7.578125 0.734375 C 8.117188 -0.335938 8.59375 -1.65625 9 -3.21875 C 6.9375 -0.363281 5.90625 1.421875 5.90625 2.140625 C 5.90625 2.253906 5.945312 2.328125 6.03125 2.359375 Z M 8.796875 -8.671875 C 8.796875 -6.960938 8.960938 -5.554688 9.296875 -4.453125 C 9.679688 -6.179688 9.875 -7.582031 9.875 -8.65625 C 9.875 -9.738281 9.679688 -10.28125 9.296875 -10.28125 C 8.960938 -10.28125 8.796875 -9.742188 8.796875 -8.671875 Z M 1.53125 -0.28125 L 1.890625 -0.484375 C 1.941406 -0.484375 1.96875 -0.457031 1.96875 -0.40625 C 1.96875 -0.269531 1.753906 -0.0507812 1.328125 0.25 C 0.910156 0.550781 0.582031 0.703125 0.34375 0.703125 C 0.113281 0.703125 0 0.585938 0 0.359375 C 0 -0.535156 1.21875 -2.625 3.65625 -5.90625 C 6.09375 -9.1875 8.148438 -11.734375 9.828125 -13.546875 L 9.875 -13.65625 C 9.875 -13.6875 9.851562 -13.703125 9.8125 -13.703125 C 9.15625 -13.265625 7.785156 -12.585938 5.703125 -11.671875 C 3.628906 -10.765625 2.140625 -10.3125 1.234375 -10.3125 C 0.734375 -10.3125 0.484375 -10.476562 0.484375 -10.8125 C 0.484375 -10.914062 0.550781 -11.050781 0.6875 -11.21875 C 0.832031 -11.394531 0.929688 -11.484375 0.984375 -11.484375 C 1.046875 -11.484375 1.132812 -11.425781 1.25 -11.3125 C 1.375 -11.207031 1.738281 -11.15625 2.34375 -11.15625 C 2.957031 -11.15625 3.992188 -11.425781 5.453125 -11.96875 C 6.910156 -12.519531 8.425781 -13.25 10 -14.15625 C 10.539062 -14.46875 10.984375 -14.785156 11.328125 -15.109375 C 11.679688 -15.429688 12.085938 -15.832031 12.546875 -16.3125 C 13.015625 -16.800781 13.316406 -17.113281 13.453125 -17.25 C 13.597656 -17.394531 13.867188 -17.679688 14.265625 -18.109375 C 14.660156 -18.535156 14.972656 -18.867188 15.203125 -19.109375 C 15.859375 -19.722656 16.394531 -20.03125 16.8125 -20.03125 C 16.945312 -20.03125 17.015625 -19.972656 17.015625 -19.859375 C 17.015625 -19.191406 15.9375 -18.066406 13.78125 -16.484375 C 12.957031 -15.867188 12.476562 -15.484375 12.34375 -15.328125 C 10.445312 -13.253906 8.164062 -10.453125 5.5 -6.921875 C 2.84375 -3.398438 1.503906 -1.210938 1.484375 -0.359375 C 1.484375 -0.304688 1.5 -0.28125 1.53125 -0.28125 Z M 14.359375 -3.765625 L 12.546875 -2.671875 C 11.910156 -2.265625 11.34375 -2.0625 10.84375 -2.0625 C 10.351562 -2.0625 9.914062 -2.238281 9.53125 -2.59375 C 9.0625 -1.101562 8.492188 0.144531 7.828125 1.15625 C 7.171875 2.164062 6.523438 2.671875 5.890625 2.671875 C 5.671875 2.671875 5.5625 2.566406 5.5625 2.359375 C 5.5625 1.304688 6.648438 -0.726562 8.828125 -3.75 C 8.390625 -4.800781 8.171875 -6.289062 8.171875 -8.21875 C 8.171875 -8.875 8.269531 -9.421875 8.46875 -9.859375 C 8.675781 -10.296875 8.953125 -10.515625 9.296875 -10.515625 C 10.109375 -10.515625 10.515625 -9.675781 10.515625 -8 C 10.515625 -7.289062 10.4375 -6.535156 10.28125 -5.734375 C 12.613281 -8.765625 15.269531 -11.921875 18.25 -15.203125 C 21.238281 -18.492188 23.234375 -20.507812 24.234375 -21.25 C 24.472656 -21.394531 24.757812 -21.46875 25.09375 -21.46875 C 25.425781 -21.46875 25.59375 -21.410156 25.59375 -21.296875 C 25.59375 -21.210938 25.5625 -21.132812 25.5 -21.0625 C 25.40625 -20.976562 25.265625 -20.851562 25.078125 -20.6875 C 24.898438 -20.519531 24.742188 -20.367188 24.609375 -20.234375 C 18.742188 -14.367188 14.003906 -9.285156 10.390625 -4.984375 L 10.078125 -4.59375 C 10.066406 -4.550781 10.023438 -4.375 9.953125 -4.0625 C 9.890625 -3.75 9.832031 -3.519531 9.78125 -3.375 C 10.132812 -2.769531 10.585938 -2.46875 11.140625 -2.46875 C 11.453125 -2.46875 11.757812 -2.550781 12.0625 -2.71875 C 12.570312 -3 13.171875 -3.367188 13.859375 -3.828125 C 13.972656 -3.890625 14.097656 -3.921875 14.234375 -3.921875 C 14.367188 -3.921875 14.4375 -3.90625 14.4375 -3.875 C 14.4375 -3.84375 14.410156 -3.804688 14.359375 -3.765625 Z M 14.359375 -3.765625 "/></g></g></g></g><g fill="#000000" fill-opacity="1"><g transform="translate(12.912085, 23.723201)"><g><path d="M 8.265625 -2.984375 L 8.296875 -2.671875 C 5.597656 -0.867188 3.957031 0.03125 3.375 0.03125 C 3.269531 0.03125 3.21875 -0.03125 3.21875 -0.15625 C 3.21875 -0.5 3.351562 -1 3.625 -1.65625 L 3.75 -2.015625 C 3.75 -2.046875 3.71875 -2.0625 3.65625 -2.0625 C 3.59375 -2.0625 3.101562 -1.726562 2.1875 -1.0625 C 1.28125 -0.382812 0.6875 -0.046875 0.40625 -0.046875 C 0.132812 -0.046875 0 -0.296875 0 -0.796875 C 0 -2.191406 0.789062 -3.550781 2.375 -4.875 C 3.957031 -6.195312 5.863281 -6.859375 8.09375 -6.859375 C 8.289062 -6.859375 8.390625 -6.773438 8.390625 -6.609375 C 8.390625 -6.441406 7.601562 -5.460938 6.03125 -3.671875 C 4.457031 -1.890625 3.671875 -0.816406 3.671875 -0.453125 C 3.671875 -0.390625 3.71875 -0.359375 3.8125 -0.359375 C 3.914062 -0.359375 4.34375 -0.570312 5.09375 -1 C 5.851562 -1.4375 6.566406 -1.875 7.234375 -2.3125 Z M 4.28125 -2.96875 C 4.5625 -3.1875 5.113281 -3.765625 5.9375 -4.703125 C 6.757812 -5.640625 7.171875 -6.179688 7.171875 -6.328125 C 7.171875 -6.398438 7.101562 -6.4375 6.96875 -6.4375 C 6.195312 -6.4375 5.296875 -6.078125 4.265625 -5.359375 C 3.242188 -4.648438 2.378906 -3.84375 1.671875 -2.9375 C 0.960938 -2.03125 0.609375 -1.300781 0.609375 -0.75 C 0.609375 -0.65625 0.65625 -0.609375 0.75 -0.609375 C 0.851562 -0.609375 1.015625 -0.671875 1.234375 -0.796875 C 1.460938 -0.921875 1.738281 -1.09375 2.0625 -1.3125 C 2.394531 -1.539062 2.679688 -1.738281 2.921875 -1.90625 C 3.722656 -2.507812 4.175781 -2.863281 4.28125 -2.96875 Z M 4.28125 -2.96875 "/></g></g></g><g fill="#000000" fill-opacity="1"><g transform="translate(20.327881, 23.723201)"><g><path d="M 14.4375 -16.546875 C 13.925781 -16.546875 12.070312 -14.9375 8.875 -11.71875 C 5.675781 -8.5 3.242188 -5.738281 1.578125 -3.4375 C 3.117188 -4.613281 5.65625 -6.914062 9.1875 -10.34375 C 12.71875 -13.769531 14.484375 -15.8125 14.484375 -16.46875 C 14.484375 -16.5 14.46875 -16.523438 14.4375 -16.546875 Z M 14.90625 -17 C 15.0625 -17 15.140625 -16.90625 15.140625 -16.71875 C 15.140625 -15.914062 13.335938 -13.773438 9.734375 -10.296875 C 6.140625 -6.816406 3.289062 -4.335938 1.1875 -2.859375 C 0.445312 -1.804688 0.078125 -1.046875 0.078125 -0.578125 C 0.078125 -0.429688 0.109375 -0.359375 0.171875 -0.359375 C 0.859375 -0.359375 2.09375 -0.910156 3.875 -2.015625 L 5.375 -2.984375 L 5.40625 -2.671875 C 4.988281 -2.398438 4.507812 -2.097656 3.96875 -1.765625 C 2.03125 -0.554688 0.679688 0.046875 -0.078125 0.046875 C -0.273438 0.046875 -0.375 -0.109375 -0.375 -0.421875 C -0.375 -1.398438 0.300781 -2.835938 1.65625 -4.734375 C 3.019531 -6.640625 4.578125 -8.484375 6.328125 -10.265625 C 8.078125 -12.054688 9.789062 -13.625 11.46875 -14.96875 C 13.15625 -16.320312 14.300781 -17 14.90625 -17 Z M 14.90625 -17 "/></g></g></g><g clip-path="url(#9ba15a1c9a)"><g fill="#000000" fill-opacity="1"><g transform="translate(24.877916, 23.723201)"><g><path d="M 14.4375 -16.546875 C 13.925781 -16.546875 12.070312 -14.9375 8.875 -11.71875 C 5.675781 -8.5 3.242188 -5.738281 1.578125 -3.4375 C 3.117188 -4.613281 5.65625 -6.914062 9.1875 -10.34375 C 12.71875 -13.769531 14.484375 -15.8125 14.484375 -16.46875 C 14.484375 -16.5 14.46875 -16.523438 14.4375 -16.546875 Z M 14.90625 -17 C 15.0625 -17 15.140625 -16.90625 15.140625 -16.71875 C 15.140625 -15.914062 13.335938 -13.773438 9.734375 -10.296875 C 6.140625 -6.816406 3.289062 -4.335938 1.1875 -2.859375 C 0.445312 -1.804688 0.078125 -1.046875 0.078125 -0.578125 C 0.078125 -0.429688 0.109375 -0.359375 0.171875 -0.359375 C 0.859375 -0.359375 2.09375 -0.910156 3.875 -2.015625 L 5.375 -2.984375 L 5.40625 -2.671875 C 4.988281 -2.398438 4.507812 -2.097656 3.96875 -1.765625 C 2.03125 -0.554688 0.679688 0.046875 -0.078125 0.046875 C -0.273438 0.046875 -0.375 -0.109375 -0.375 -0.421875 C -0.375 -1.398438 0.300781 -2.835938 1.65625 -4.734375 C 3.019531 -6.640625 4.578125 -8.484375 6.328125 -10.265625 C 8.078125 -12.054688 9.789062 -13.625 11.46875 -14.96875 C 13.15625 -16.320312 14.300781 -17 14.90625 -17 Z M 14.90625 -17 "/></g></g></g></g></g></g></g></g></g></g></svg>