<svg xmlns="http://www.w3.org/2000/svg" xmlns:xlink="http://www.w3.org/1999/xlink" zoomAndPan="magnify" preserveAspectRatio="xMidYMid meet" version="1.0" viewBox="1.43 0 147.13 36.78"><defs><g/><clipPath id="2e674079ea"><path d="M 1.433594 0 L 148.5625 0 L 148.5625 36.78125 L 1.433594 36.78125 Z M 1.433594 0 " clip-rule="nonzero"/></clipPath><clipPath id="a349ccf173"><path d="M 1.433594 8 L 148.5625 8 L 148.5625 32 L 1.433594 32 Z M 1.433594 8 " clip-rule="nonzero"/></clipPath><clipPath id="0eebda5efd"><path d="M 132 1 L 147.5625 1 L 147.5625 18 L 132 18 Z M 132 1 " clip-rule="nonzero"/></clipPath><clipPath id="35ffbd07ee"><rect x="0" width="148" y="0" height="24"/></clipPath></defs><g clip-path="url(#2e674079ea)"><path fill="#ffffff" d="M 1.433594 0 L 148.566406 0 L 148.566406 36.78125 L 1.433594 36.78125 Z M 1.433594 0 " fill-opacity="1" fill-rule="nonzero"/><path fill="#ffffff" d="M 1.433594 0 L 148.566406 0 L 148.566406 36.78125 L 1.433594 36.78125 Z M 1.433594 0 " fill-opacity="1" fill-rule="nonzero"/></g><g clip-path="url(#a349ccf173)"><g transform="matrix(1, 0, 0, 1, 1, 8)"><g clip-path="url(#35ffbd07ee)"><g fill="#000000" fill-opacity="1"><g transform="translate(0.434783, 17.536506)"><g><path d="M 11.265625 -15.359375 L 11.265625 -14.34375 L 6.75 -14.34375 L 6.75 0 L 5.6875 0 L 5.6875 -14.34375 L 1.21875 -14.34375 L 1.21875 -15.359375 Z M 11.265625 -15.359375 "/></g></g></g><g fill="#000000" fill-opacity="1"><g transform="translate(12.908103, 17.536506)"><g><path d="M 13.8125 0 L 12.765625 0 L 12.765625 -7.21875 L 3.5 -7.21875 L 3.5 0 L 2.4375 0 L 2.4375 -15.359375 L 3.5 -15.359375 L 3.5 -8.21875 L 12.765625 -8.21875 L 12.765625 -15.359375 L 13.8125 -15.359375 Z M 13.8125 0 "/></g></g></g><g fill="#000000" fill-opacity="1"><g transform="translate(29.164494, 17.536506)"><g><path d="M 11.921875 -15.359375 L 11.921875 -14.34375 L 3.5 -14.34375 L 3.5 -8.234375 L 11.078125 -8.234375 L 11.078125 -7.21875 L 3.5 -7.21875 L 3.5 -1.015625 L 12.21875 -1.015625 L 12.21875 0 L 2.4375 0 L 2.4375 -15.359375 Z M 11.921875 -15.359375 "/></g></g></g><g fill="#000000" fill-opacity="1"><g transform="translate(45.942263, 17.536506)"><g><path d="M 14.6875 -1.453125 C 14.25 -1.046875 13.492188 -0.671875 12.421875 -0.328125 C 11.347656 0.00390625 10.363281 0.171875 9.46875 0.171875 C 7.8125 0.171875 6.351562 -0.15625 5.09375 -0.8125 C 3.84375 -1.476562 2.878906 -2.390625 2.203125 -3.546875 C 1.523438 -4.710938 1.1875 -6.03125 1.1875 -7.5 C 1.1875 -9.269531 1.550781 -10.789062 2.28125 -12.0625 C 3.007812 -13.332031 3.988281 -14.289062 5.21875 -14.9375 C 6.457031 -15.59375 7.8125 -15.921875 9.28125 -15.921875 C 10.1875 -15.921875 11.046875 -15.8125 11.859375 -15.59375 C 12.671875 -15.382812 13.390625 -15.109375 14.015625 -14.765625 L 13.1875 -12.4375 C 12.757812 -12.695312 12.1875 -12.921875 11.46875 -13.109375 C 10.757812 -13.296875 10.132812 -13.390625 9.59375 -13.390625 C 7.789062 -13.390625 6.367188 -12.890625 5.328125 -11.890625 C 4.296875 -10.898438 3.78125 -9.507812 3.78125 -7.71875 C 3.78125 -6.65625 4.019531 -5.710938 4.5 -4.890625 C 4.988281 -4.078125 5.664062 -3.445312 6.53125 -3 C 7.40625 -2.550781 8.40625 -2.328125 9.53125 -2.328125 C 10.039062 -2.328125 10.523438 -2.375 10.984375 -2.46875 C 11.441406 -2.5625 11.832031 -2.695312 12.15625 -2.875 L 12.15625 -5.5 L 9.1875 -5.5 L 9.1875 -7.921875 L 14.6875 -7.921875 Z M 14.6875 -1.453125 "/></g></g></g><g fill="#000000" fill-opacity="1"><g transform="translate(62.285119, 17.536506)"><g><path d="M 10.25 -3.703125 L 4.515625 -3.703125 L 3 0 L 0.515625 0 L 7.484375 -16.390625 L 7.640625 -16.390625 L 14.59375 0 L 11.703125 0 Z M 9.40625 -5.859375 L 7.4375 -10.828125 L 5.40625 -5.859375 Z M 9.40625 -5.859375 "/></g></g></g><g fill="#000000" fill-opacity="1"><g transform="translate(77.395779, 17.536506)"><g><path d="M 4.6875 -15.75 L 4.6875 -2.421875 L 12.453125 -2.421875 L 12.453125 0 L 2.15625 0 L 2.15625 -15.75 Z M 4.6875 -15.75 "/></g></g></g><g fill="#000000" fill-opacity="1"><g transform="translate(91.014824, 17.536506)"><g><path d="M 4.6875 -15.75 L 4.6875 -2.421875 L 12.453125 -2.421875 L 12.453125 0 L 2.15625 0 L 2.15625 -15.75 Z M 4.6875 -15.75 "/></g></g></g><g fill="#000000" fill-opacity="1"><g transform="translate(104.633868, 17.536506)"><g><path d="M 12.609375 -15.75 L 12.609375 -13.328125 L 4.6875 -13.328125 L 4.6875 -9.125 L 11.75 -9.125 L 11.75 -6.703125 L 4.6875 -6.703125 L 4.6875 -2.421875 L 12.90625 -2.421875 L 12.90625 0 L 2.15625 0 L 2.15625 -15.75 Z M 12.609375 -15.75 "/></g></g></g><g fill="#000000" fill-opacity="1"><g transform="translate(118.858209, 17.536506)"><g><path d="M 10.765625 0 L 7.21875 -5.46875 L 4.6875 -5.46875 L 4.6875 0 L 2.15625 0 L 2.15625 -15.75 L 6.59375 -15.75 C 8.351562 -15.75 9.757812 -15.300781 10.8125 -14.40625 C 11.875 -13.507812 12.40625 -12.269531 12.40625 -10.6875 C 12.40625 -9.71875 12.203125 -8.816406 11.796875 -7.984375 C 11.390625 -7.160156 10.742188 -6.523438 9.859375 -6.078125 L 13.6875 0 Z M 4.6875 -7.890625 L 6.9375 -7.890625 C 7.945312 -7.890625 8.675781 -8.164062 9.125 -8.71875 C 9.582031 -9.28125 9.8125 -9.90625 9.8125 -10.59375 C 9.8125 -11 9.722656 -11.40625 9.546875 -11.8125 C 9.378906 -12.226562 9.085938 -12.582031 8.671875 -12.875 C 8.253906 -13.175781 7.707031 -13.328125 7.03125 -13.328125 L 4.6875 -13.328125 Z M 4.6875 -7.890625 "/></g></g></g><g clip-path="url(#0eebda5efd)"><g fill="#000000" fill-opacity="1"><g transform="translate(132.32585, 17.536506)"><g><path d="M 14.734375 -15.75 L 8.828125 -5.109375 L 8.828125 0 L 6.3125 0 L 6.3125 -5.109375 L 0.5 -15.75 L 3.59375 -15.75 L 7.65625 -7.984375 L 11.640625 -15.75 Z M 14.734375 -15.75 "/></g></g></g></g></g></g></g></svg>