<svg xmlns="http://www.w3.org/2000/svg" xmlns:xlink="http://www.w3.org/1999/xlink" zoomAndPan="magnify" preserveAspectRatio="xMidYMid meet" version="1.0" viewBox="0.99 0 148.02 37.01"><defs><g/><clipPath id="863e9b8311"><path d="M 0.988281 0 L 149.011719 0 L 149.011719 37.007812 L 0.988281 37.007812 Z M 0.988281 0 " clip-rule="nonzero"/></clipPath></defs><g clip-path="url(#863e9b8311)"><path fill="#ffffff" d="M 0.988281 0 L 149.011719 0 L 149.011719 37.007812 L 0.988281 37.007812 Z M 0.988281 0 " fill-opacity="1" fill-rule="nonzero"/><path fill="#ffffff" d="M 0.988281 0 L 149.011719 0 L 149.011719 37.007812 L 0.988281 37.007812 Z M 0.988281 0 " fill-opacity="1" fill-rule="nonzero"/></g><g fill="#000000" fill-opacity="1"><g transform="translate(2.467105, 24.617419)"><g><path d="M 13.734375 -15.703125 L 13.734375 -14.84375 L 7.75 -14.84375 L 7.75 0.046875 L 6.75 0.046875 L 6.75 -14.84375 L 0.703125 -14.84375 L 0.703125 -15.703125 Z M 13.734375 -15.703125 "/></g></g></g><g fill="#000000" fill-opacity="1"><g transform="translate(15.252727, 24.617419)"><g><path d="M 13.25 -15.703125 L 14.234375 -15.703125 L 14.234375 0 L 13.25 0 L 13.25 -7.71875 L 2.765625 -7.71875 L 2.765625 0 L 1.765625 0 L 1.765625 -15.703125 L 2.765625 -15.703125 L 2.765625 -8.5625 L 13.25 -8.5625 Z M 13.25 -15.703125 "/></g></g></g><g fill="#000000" fill-opacity="1"><g transform="translate(29.902229, 24.617419)"><g><path d="M 2.765625 -0.84375 L 12.96875 -0.84375 L 12.96875 0 L 1.765625 0 L 1.765625 -15.703125 L 12.890625 -15.703125 L 12.890625 -14.84375 L 2.765625 -14.84375 L 2.765625 -8.59375 L 12.1875 -8.59375 L 12.1875 -7.75 L 2.765625 -7.75 Z M 2.765625 -0.84375 "/></g></g></g><g fill="#000000" fill-opacity="1"><g transform="translate(43.04713, 24.617419)"><g/></g></g><g fill="#000000" fill-opacity="1"><g transform="translate(46.938818, 24.617419)"><g><path d="M 13.203125 -14.125 L 3.5625 -14.125 L 3.5625 -8.734375 L 12.484375 -8.734375 L 12.484375 -7.171875 L 3.5625 -7.171875 L 3.5625 0 L 1.609375 0 L 1.609375 -15.703125 L 13.203125 -15.703125 Z M 13.203125 -14.125 "/></g></g></g><g fill="#000000" fill-opacity="1"><g transform="translate(59.063531, 24.617419)"><g><path d="M 10.171875 -14.125 L 6.84375 -14.125 L 6.84375 -1.578125 L 10.171875 -1.578125 L 10.171875 0 L 1.578125 0 L 1.578125 -1.578125 L 4.90625 -1.578125 L 4.90625 -14.125 L 1.578125 -14.125 L 1.578125 -15.703125 L 10.171875 -15.703125 Z M 10.171875 -14.125 "/></g></g></g><g fill="#000000" fill-opacity="1"><g transform="translate(69.041699, 24.617419)"><g><path d="M 3.5625 -1.578125 L 13.296875 -1.578125 L 13.296875 0 L 1.609375 0 L 1.609375 -15.703125 L 13.21875 -15.703125 L 13.21875 -14.125 L 3.5625 -14.125 L 3.5625 -8.859375 L 12.515625 -8.859375 L 12.515625 -7.296875 L 3.5625 -7.296875 Z M 3.5625 -1.578125 "/></g></g></g><g fill="#000000" fill-opacity="1"><g transform="translate(82.086799, 24.617419)"><g><path d="M 3.5625 -1.578125 L 11.78125 -1.578125 L 11.78125 0 L 1.609375 0 L 1.609375 -15.703125 L 3.5625 -15.703125 Z M 3.5625 -1.578125 "/></g></g></g><g fill="#000000" fill-opacity="1"><g transform="translate(92.890804, 24.617419)"><g><path d="M 8.125 -15.703125 C 9.832031 -15.703125 11.222656 -15.347656 12.296875 -14.640625 C 13.378906 -13.929688 14.171875 -12.984375 14.671875 -11.796875 C 15.179688 -10.617188 15.4375 -9.316406 15.4375 -7.890625 C 15.4375 -6.453125 15.179688 -5.132812 14.671875 -3.9375 C 14.171875 -2.75 13.378906 -1.796875 12.296875 -1.078125 C 11.222656 -0.359375 9.832031 0 8.125 0 L 1.609375 0 L 1.609375 -15.703125 Z M 7.765625 -1.578125 C 9.171875 -1.578125 10.28125 -1.820312 11.09375 -2.3125 C 11.914062 -2.8125 12.503906 -3.535156 12.859375 -4.484375 C 13.210938 -5.429688 13.390625 -6.566406 13.390625 -7.890625 C 13.390625 -9.222656 13.210938 -10.347656 12.859375 -11.265625 C 12.503906 -12.191406 11.914062 -12.898438 11.09375 -13.390625 C 10.28125 -13.878906 9.171875 -14.125 7.765625 -14.125 L 3.5625 -14.125 L 3.5625 -1.578125 Z M 7.765625 -1.578125 "/></g></g></g><g fill="#000000" fill-opacity="1"><g transform="translate(107.492806, 24.617419)"><g><path d="M 1.234375 -5.390625 L 3.140625 -5.390625 C 3.148438 -4.578125 3.3125 -3.851562 3.625 -3.21875 C 3.945312 -2.582031 4.460938 -2.082031 5.171875 -1.71875 C 5.890625 -1.363281 6.859375 -1.1875 8.078125 -1.1875 C 9.160156 -1.1875 10.007812 -1.300781 10.625 -1.53125 C 11.238281 -1.769531 11.671875 -2.109375 11.921875 -2.546875 C 12.171875 -2.984375 12.296875 -3.503906 12.296875 -4.109375 C 12.296875 -4.941406 12.066406 -5.578125 11.609375 -6.015625 C 11.160156 -6.460938 10.4375 -6.765625 9.4375 -6.921875 L 5.734375 -7.484375 C 4.367188 -7.691406 3.363281 -8.132812 2.71875 -8.8125 C 2.070312 -9.488281 1.75 -10.414062 1.75 -11.59375 C 1.75 -12.4375 1.960938 -13.203125 2.390625 -13.890625 C 2.828125 -14.578125 3.484375 -15.117188 4.359375 -15.515625 C 5.242188 -15.921875 6.363281 -16.125 7.71875 -16.125 C 9.78125 -16.125 11.328125 -15.648438 12.359375 -14.703125 C 13.390625 -13.765625 13.960938 -12.539062 14.078125 -11.03125 L 12.1875 -11.03125 C 12.070312 -12.09375 11.664062 -12.953125 10.96875 -13.609375 C 10.269531 -14.265625 9.179688 -14.59375 7.703125 -14.59375 C 6.316406 -14.59375 5.304688 -14.320312 4.671875 -13.78125 C 4.046875 -13.238281 3.734375 -12.523438 3.734375 -11.640625 C 3.734375 -11.023438 3.90625 -10.492188 4.25 -10.046875 C 4.59375 -9.597656 5.207031 -9.300781 6.09375 -9.15625 L 10.015625 -8.5625 C 11.410156 -8.34375 12.46875 -7.898438 13.1875 -7.234375 C 13.914062 -6.578125 14.28125 -5.625 14.28125 -4.375 C 14.28125 -2.875 13.789062 -1.707031 12.8125 -0.875 C 11.84375 -0.0507812 10.265625 0.359375 8.078125 0.359375 C 6.378906 0.359375 5.03125 0.0898438 4.03125 -0.4375 C 3.03125 -0.96875 2.3125 -1.664062 1.875 -2.53125 C 1.445312 -3.40625 1.234375 -4.359375 1.234375 -5.390625 Z M 1.234375 -5.390625 "/></g></g></g></svg>