<svg xmlns="http://www.w3.org/2000/svg" xmlns:xlink="http://www.w3.org/1999/xlink" zoomAndPan="magnify" preserveAspectRatio="xMidYMid meet" version="1.0" viewBox="1.43 0 147.13 36.78"><defs><g/><clipPath id="b5ae027beb"><path d="M 1.433594 0 L 148.5625 0 L 148.5625 36.78125 L 1.433594 36.78125 Z M 1.433594 0 " clip-rule="nonzero"/></clipPath><clipPath id="cf451506ae"><path d="M 1.433594 0 L 147 0 L 147 36.78125 L 1.433594 36.78125 Z M 1.433594 0 " clip-rule="nonzero"/></clipPath><clipPath id="8ad0e71c49"><path d="M 127 9 L 145.445312 9 L 145.445312 28 L 127 28 Z M 127 9 " clip-rule="nonzero"/></clipPath><clipPath id="9f0fdbc0a4"><rect x="0" width="146" y="0" height="37"/></clipPath></defs><g clip-path="url(#b5ae027beb)"><path fill="#ffffff" d="M 1.433594 0 L 148.566406 0 L 148.566406 36.78125 L 1.433594 36.78125 Z M 1.433594 0 " fill-opacity="1" fill-rule="nonzero"/><path fill="#ffffff" d="M 1.433594 0 L 148.566406 0 L 148.566406 36.78125 L 1.433594 36.78125 Z M 1.433594 0 " fill-opacity="1" fill-rule="nonzero"/></g><g clip-path="url(#cf451506ae)"><g transform="matrix(1, 0, 0, 1, 1, -0.000000000000003525)"><g clip-path="url(#9f0fdbc0a4)"><g fill="#000000" fill-opacity="1"><g transform="translate(23.134752, 27.257248)"><g><path d="M 15.46875 -14.875 C 15.46875 -14.019531 15.289062 -13.21875 14.9375 -12.46875 C 14.289062 -11.082031 13.15625 -10.113281 11.53125 -9.5625 C 10.96875 -9.363281 10.476562 -9.265625 10.0625 -9.265625 C 8.851562 -9.265625 7.804688 -9.492188 6.921875 -9.953125 L 6.921875 -10.234375 C 8.347656 -9.921875 9.671875 -10.078125 10.890625 -10.703125 C 11.960938 -11.253906 12.695312 -12.15625 13.09375 -13.40625 C 13.207031 -13.800781 13.265625 -14.171875 13.265625 -14.515625 C 13.265625 -14.867188 13.265625 -15.085938 13.265625 -15.171875 C 13.222656 -16.535156 12.859375 -17.625 12.171875 -18.4375 C 11.492188 -19.25 10.535156 -19.65625 9.296875 -19.65625 L 5.921875 -19.65625 L 5.921875 -2.140625 C 5.941406 -1.628906 6.132812 -1.191406 6.5 -0.828125 C 6.863281 -0.472656 7.300781 -0.296875 7.8125 -0.296875 L 8.1875 -0.296875 L 8.1875 0 L 1.765625 0 L 1.765625 -0.296875 L 2.140625 -0.296875 C 2.648438 -0.296875 3.082031 -0.472656 3.4375 -0.828125 C 3.800781 -1.191406 3.992188 -1.628906 4.015625 -2.140625 L 4.015625 -18.546875 C 3.960938 -19.035156 3.757812 -19.441406 3.40625 -19.765625 C 3.050781 -20.085938 2.628906 -20.25 2.140625 -20.25 L 1.796875 -20.25 L 1.765625 -20.546875 L 9.421875 -20.546875 C 11.296875 -20.546875 12.769531 -20.039062 13.84375 -19.03125 C 14.925781 -18.019531 15.46875 -16.632812 15.46875 -14.875 Z M 15.46875 -14.875 "/></g></g></g><g fill="#000000" fill-opacity="1"><g transform="translate(38.308395, 27.257248)"><g><path d="M 19.359375 -0.296875 L 19.609375 -0.296875 L 19.609375 0 L 13.59375 0 L 13.59375 -0.296875 L 13.828125 -0.296875 C 14.191406 -0.296875 14.472656 -0.421875 14.671875 -0.671875 C 14.867188 -0.929688 14.96875 -1.171875 14.96875 -1.390625 C 14.96875 -1.617188 14.925781 -1.835938 14.84375 -2.046875 L 13.234375 -5.953125 L 5.8125 -5.953125 L 4.203125 -2.140625 C 4.097656 -1.890625 4.046875 -1.648438 4.046875 -1.421875 C 4.046875 -1.191406 4.144531 -0.945312 4.34375 -0.6875 C 4.539062 -0.425781 4.832031 -0.296875 5.21875 -0.296875 L 5.453125 -0.296875 L 5.453125 0 L -0.140625 0 L -0.140625 -0.296875 L 0.09375 -0.296875 C 0.5 -0.296875 0.910156 -0.4375 1.328125 -0.71875 C 1.753906 -1 2.101562 -1.425781 2.375 -2 C 6.65625 -11.15625 8.882812 -15.945312 9.0625 -16.375 C 9.394531 -17.195312 9.570312 -17.742188 9.59375 -18.015625 L 9.859375 -18.015625 L 17.109375 -2 C 17.671875 -0.863281 18.421875 -0.296875 19.359375 -0.296875 Z M 6.1875 -6.84375 L 12.875 -6.84375 L 9.59375 -14.875 Z M 6.1875 -6.84375 "/></g></g></g><g fill="#000000" fill-opacity="1"><g transform="translate(56.006083, 27.257248)"><g><path d="M 7.09375 -16.703125 L 5.546875 -16.703125 L 5.546875 -1.875 C 5.566406 -1.269531 5.84375 -0.8125 6.375 -0.5 C 6.625 -0.363281 6.90625 -0.296875 7.21875 -0.296875 L 7.59375 -0.296875 L 7.625 0 L 1.609375 0 L 1.609375 -0.296875 L 2.03125 -0.296875 C 2.476562 -0.296875 2.863281 -0.445312 3.1875 -0.75 C 3.507812 -1.050781 3.671875 -1.414062 3.671875 -1.84375 L 3.671875 -15.78125 C 3.671875 -16.21875 3.507812 -16.582031 3.1875 -16.875 C 2.863281 -17.164062 2.476562 -17.3125 2.03125 -17.3125 L 1.609375 -17.3125 L 1.609375 -17.609375 L 8.984375 -17.609375 C 10.816406 -17.609375 12.265625 -17.1875 13.328125 -16.34375 C 14.398438 -15.5 14.9375 -14.390625 14.9375 -13.015625 C 14.9375 -11.648438 14.503906 -10.507812 13.640625 -9.59375 C 12.785156 -8.675781 11.691406 -8.148438 10.359375 -8.015625 C 10.984375 -7.734375 11.738281 -6.96875 12.625 -5.71875 C 12.601562 -5.71875 12.9375 -5.285156 13.625 -4.421875 C 14.320312 -3.566406 14.878906 -2.898438 15.296875 -2.421875 C 15.722656 -1.941406 16.070312 -1.578125 16.34375 -1.328125 C 17.070312 -0.640625 17.90625 -0.296875 18.84375 -0.296875 L 18.84375 0 L 17.921875 0 C 16.378906 0 15.171875 -0.300781 14.296875 -0.90625 C 13.628906 -1.351562 13.019531 -1.910156 12.46875 -2.578125 C 12.351562 -2.734375 11.859375 -3.421875 10.984375 -4.640625 C 10.117188 -5.867188 9.65625 -6.523438 9.59375 -6.609375 C 8.539062 -7.910156 7.550781 -8.5625 6.625 -8.5625 L 6.625 -8.859375 C 8.914062 -8.859375 10.296875 -8.976562 10.765625 -9.21875 C 11.410156 -9.550781 11.851562 -9.898438 12.09375 -10.265625 C 12.582031 -11.046875 12.828125 -11.910156 12.828125 -12.859375 C 12.828125 -14.046875 12.472656 -14.960938 11.765625 -15.609375 C 11.054688 -16.253906 10.109375 -16.609375 8.921875 -16.671875 C 8.390625 -16.691406 7.78125 -16.703125 7.09375 -16.703125 Z M 7.09375 -16.703125 "/></g></g></g><g fill="#000000" fill-opacity="1"><g transform="translate(72.647188, 27.257248)"><g><path d="M 2.03125 -0.296875 C 2.5 -0.296875 2.894531 -0.445312 3.21875 -0.75 C 3.539062 -1.050781 3.710938 -1.414062 3.734375 -1.84375 L 3.734375 -15.734375 C 3.710938 -16.160156 3.53125 -16.53125 3.1875 -16.84375 C 2.84375 -17.15625 2.4375 -17.3125 1.96875 -17.3125 L 1.609375 -17.3125 L 1.609375 -17.609375 L 7.6875 -17.609375 L 7.6875 -17.3125 L 7.34375 -17.3125 C 6.863281 -17.3125 6.453125 -17.15625 6.109375 -16.84375 C 5.773438 -16.53125 5.609375 -16.160156 5.609375 -15.734375 L 5.609375 -0.90625 L 10.1875 -0.90625 C 11.082031 -0.90625 11.84375 -1.0625 12.46875 -1.375 C 13.09375 -1.6875 13.566406 -2.054688 13.890625 -2.484375 C 14.210938 -2.921875 14.53125 -3.492188 14.84375 -4.203125 L 15.140625 -4.203125 L 13.53125 0 L 1.609375 0 L 1.609375 -0.296875 Z M 2.03125 -0.296875 "/></g></g></g><g fill="#000000" fill-opacity="1"><g transform="translate(86.617507, 27.257248)"><g><path d="M 6.390625 -16.859375 C 7.898438 -17.628906 9.554688 -18.015625 11.359375 -18.015625 C 13.171875 -18.015625 14.832031 -17.628906 16.34375 -16.859375 C 17.851562 -16.085938 19.050781 -14.992188 19.9375 -13.578125 C 20.832031 -12.171875 21.28125 -10.578125 21.28125 -8.796875 C 21.28125 -7.023438 20.832031 -5.429688 19.9375 -4.015625 C 19.050781 -2.609375 17.851562 -1.519531 16.34375 -0.75 C 14.832031 0.0195312 13.285156 0.40625 11.703125 0.40625 C 10.117188 0.40625 8.71875 0.179688 7.5 -0.265625 C 6.289062 -0.710938 5.238281 -1.335938 4.34375 -2.140625 C 3.457031 -2.941406 2.753906 -3.921875 2.234375 -5.078125 C 1.722656 -6.234375 1.46875 -7.585938 1.46875 -9.140625 C 1.46875 -10.691406 1.910156 -12.171875 2.796875 -13.578125 C 3.691406 -14.992188 4.890625 -16.085938 6.390625 -16.859375 Z M 5.84375 -2.796875 C 7.320312 -1.242188 9.15625 -0.46875 11.34375 -0.46875 C 13.539062 -0.46875 15.382812 -1.242188 16.875 -2.796875 C 18.363281 -4.359375 19.109375 -6.359375 19.109375 -8.796875 C 19.109375 -11.242188 18.363281 -13.242188 16.875 -14.796875 C 15.382812 -16.359375 13.539062 -17.140625 11.34375 -17.140625 C 9.15625 -17.140625 7.320312 -16.359375 5.84375 -14.796875 C 4.375 -13.242188 3.640625 -11.242188 3.640625 -8.796875 C 3.640625 -6.359375 4.375 -4.359375 5.84375 -2.796875 Z M 5.84375 -2.796875 "/></g></g></g><g fill="#000000" fill-opacity="1"><g transform="translate(107.572971, 27.257248)"><g><path d="M 19.515625 -17.3125 L 19.078125 -17.3125 C 18.546875 -17.3125 18.144531 -17.109375 17.875 -16.703125 C 17.75 -16.523438 17.679688 -16.316406 17.671875 -16.078125 L 17.671875 -6.1875 C 17.671875 -4.15625 17.019531 -2.546875 15.71875 -1.359375 C 14.414062 -0.179688 12.628906 0.40625 10.359375 0.40625 C 8.085938 0.40625 6.296875 -0.175781 4.984375 -1.34375 C 3.671875 -2.519531 3.015625 -4.125 3.015625 -6.15625 L 3.015625 -16.046875 C 3.015625 -16.398438 2.878906 -16.695312 2.609375 -16.9375 C 2.335938 -17.1875 2.003906 -17.3125 1.609375 -17.3125 L 1.171875 -17.3125 L 1.171875 -17.609375 L 6.75 -17.609375 L 6.75 -17.3125 L 6.3125 -17.3125 C 5.914062 -17.3125 5.582031 -17.1875 5.3125 -16.9375 C 5.039062 -16.695312 4.90625 -16.398438 4.90625 -16.046875 L 4.90625 -6.515625 C 4.90625 -4.617188 5.390625 -3.117188 6.359375 -2.015625 C 7.328125 -0.921875 8.691406 -0.375 10.453125 -0.375 C 12.222656 -0.375 13.640625 -0.890625 14.703125 -1.921875 C 15.773438 -2.960938 16.3125 -4.382812 16.3125 -6.1875 L 16.3125 -16.046875 C 16.289062 -16.421875 16.148438 -16.722656 15.890625 -16.953125 C 15.628906 -17.191406 15.300781 -17.3125 14.90625 -17.3125 L 14.46875 -17.3125 L 14.46875 -17.609375 L 19.515625 -17.609375 Z M 19.515625 -17.3125 "/></g></g></g><g clip-path="url(#8ad0e71c49)"><g fill="#000000" fill-opacity="1"><g transform="translate(126.356585, 27.257248)"><g><path d="M 7.09375 -16.703125 L 5.546875 -16.703125 L 5.546875 -1.875 C 5.566406 -1.269531 5.84375 -0.8125 6.375 -0.5 C 6.625 -0.363281 6.90625 -0.296875 7.21875 -0.296875 L 7.59375 -0.296875 L 7.625 0 L 1.609375 0 L 1.609375 -0.296875 L 2.03125 -0.296875 C 2.476562 -0.296875 2.863281 -0.445312 3.1875 -0.75 C 3.507812 -1.050781 3.671875 -1.414062 3.671875 -1.84375 L 3.671875 -15.78125 C 3.671875 -16.21875 3.507812 -16.582031 3.1875 -16.875 C 2.863281 -17.164062 2.476562 -17.3125 2.03125 -17.3125 L 1.609375 -17.3125 L 1.609375 -17.609375 L 8.984375 -17.609375 C 10.816406 -17.609375 12.265625 -17.1875 13.328125 -16.34375 C 14.398438 -15.5 14.9375 -14.390625 14.9375 -13.015625 C 14.9375 -11.648438 14.503906 -10.507812 13.640625 -9.59375 C 12.785156 -8.675781 11.691406 -8.148438 10.359375 -8.015625 C 10.984375 -7.734375 11.738281 -6.96875 12.625 -5.71875 C 12.601562 -5.71875 12.9375 -5.285156 13.625 -4.421875 C 14.320312 -3.566406 14.878906 -2.898438 15.296875 -2.421875 C 15.722656 -1.941406 16.070312 -1.578125 16.34375 -1.328125 C 17.070312 -0.640625 17.90625 -0.296875 18.84375 -0.296875 L 18.84375 0 L 17.921875 0 C 16.378906 0 15.171875 -0.300781 14.296875 -0.90625 C 13.628906 -1.351562 13.019531 -1.910156 12.46875 -2.578125 C 12.351562 -2.734375 11.859375 -3.421875 10.984375 -4.640625 C 10.117188 -5.867188 9.65625 -6.523438 9.59375 -6.609375 C 8.539062 -7.910156 7.550781 -8.5625 6.625 -8.5625 L 6.625 -8.859375 C 8.914062 -8.859375 10.296875 -8.976562 10.765625 -9.21875 C 11.410156 -9.550781 11.851562 -9.898438 12.09375 -10.265625 C 12.582031 -11.046875 12.828125 -11.910156 12.828125 -12.859375 C 12.828125 -14.046875 12.472656 -14.960938 11.765625 -15.609375 C 11.054688 -16.253906 10.109375 -16.609375 8.921875 -16.671875 C 8.390625 -16.691406 7.78125 -16.703125 7.09375 -16.703125 Z M 7.09375 -16.703125 "/></g></g></g></g><g fill="#000000" fill-opacity="1"><g transform="translate(0.434783, 18.984177)"><g><path d="M 0.78125 -0.9375 C 0.78125 -0.988281 0.78125 -1.035156 0.78125 -1.078125 C 0.789062 -1.128906 0.800781 -1.175781 0.8125 -1.21875 L 2.28125 -8.125 L 1.125 -8.125 L 1.1875 -8.453125 L 2.359375 -8.453125 L 2.984375 -11.40625 L 3.3125 -11.40625 L 2.6875 -8.453125 L 4.609375 -8.453125 L 4.546875 -8.125 L 2.609375 -8.125 L 1.296875 -2.046875 C 1.234375 -1.742188 1.1875 -1.523438 1.15625 -1.390625 C 1.132812 -1.253906 1.125 -1.148438 1.125 -1.078125 C 1.125 -0.804688 1.210938 -0.597656 1.390625 -0.453125 C 1.566406 -0.316406 1.773438 -0.25 2.015625 -0.25 C 2.253906 -0.25 2.472656 -0.28125 2.671875 -0.34375 C 2.878906 -0.40625 3.050781 -0.46875 3.1875 -0.53125 C 3.320312 -0.601562 3.394531 -0.644531 3.40625 -0.65625 L 3.515625 -0.390625 C 3.515625 -0.390625 3.441406 -0.347656 3.296875 -0.265625 C 3.148438 -0.179688 2.957031 -0.101562 2.71875 -0.03125 C 2.476562 0.0390625 2.21875 0.078125 1.9375 0.078125 C 1.601562 0.078125 1.328125 -0.015625 1.109375 -0.203125 C 0.890625 -0.390625 0.78125 -0.632812 0.78125 -0.9375 Z M 0.78125 -0.9375 "/></g></g></g><g fill="#000000" fill-opacity="1"><g transform="translate(5.014727, 18.984177)"><g><path d="M 2.796875 -11.890625 L 3.125 -11.890625 L 1.9375 -6.28125 C 2.414062 -6.976562 3.003906 -7.535156 3.703125 -7.953125 C 4.410156 -8.378906 5.109375 -8.59375 5.796875 -8.59375 C 6.222656 -8.59375 6.578125 -8.503906 6.859375 -8.328125 C 7.140625 -8.160156 7.351562 -7.910156 7.5 -7.578125 C 7.644531 -7.242188 7.71875 -6.828125 7.71875 -6.328125 C 7.71875 -6.097656 7.703125 -5.847656 7.671875 -5.578125 C 7.640625 -5.304688 7.59375 -5.015625 7.53125 -4.703125 L 6.53125 0 L 6.203125 0 L 7.203125 -4.703125 C 7.253906 -5.003906 7.300781 -5.285156 7.34375 -5.546875 C 7.382812 -5.804688 7.40625 -6.046875 7.40625 -6.265625 C 7.40625 -6.921875 7.257812 -7.414062 6.96875 -7.75 C 6.6875 -8.09375 6.273438 -8.265625 5.734375 -8.265625 C 5.234375 -8.265625 4.722656 -8.132812 4.203125 -7.875 C 3.691406 -7.625 3.21875 -7.273438 2.78125 -6.828125 C 2.351562 -6.390625 2.007812 -5.894531 1.75 -5.34375 L 0.609375 0 L 0.28125 0 Z M 2.796875 -11.890625 "/></g></g></g><g fill="#000000" fill-opacity="1"><g transform="translate(13.816049, 18.984177)"><g><path d="M 3.75 0.15625 C 3.101562 0.15625 2.546875 -0.00390625 2.078125 -0.328125 C 1.609375 -0.648438 1.242188 -1.082031 0.984375 -1.625 C 0.722656 -2.164062 0.578125 -2.765625 0.546875 -3.421875 C 0.523438 -4.066406 0.625 -4.691406 0.84375 -5.296875 C 1.0625 -5.910156 1.375 -6.460938 1.78125 -6.953125 C 2.195312 -7.453125 2.691406 -7.847656 3.265625 -8.140625 C 3.835938 -8.441406 4.460938 -8.59375 5.140625 -8.59375 C 5.617188 -8.59375 6.0625 -8.503906 6.46875 -8.328125 C 6.882812 -8.160156 7.21875 -7.90625 7.46875 -7.5625 C 7.71875 -7.226562 7.847656 -6.800781 7.859375 -6.28125 C 7.890625 -5.414062 7.554688 -4.828125 6.859375 -4.515625 C 6.160156 -4.203125 5.097656 -4.046875 3.671875 -4.046875 C 3.222656 -4.046875 2.757812 -4.050781 2.28125 -4.0625 C 1.8125 -4.082031 1.285156 -4.113281 0.703125 -4.15625 L 0.828125 -4.46875 C 1.441406 -4.4375 1.972656 -4.410156 2.421875 -4.390625 C 2.867188 -4.378906 3.300781 -4.375 3.71875 -4.375 C 4.6875 -4.375 5.445312 -4.441406 6 -4.578125 C 6.5625 -4.710938 6.957031 -4.914062 7.1875 -5.1875 C 7.425781 -5.46875 7.535156 -5.816406 7.515625 -6.234375 C 7.503906 -6.722656 7.375 -7.113281 7.125 -7.40625 C 6.875 -7.707031 6.5625 -7.925781 6.1875 -8.0625 C 5.820312 -8.195312 5.445312 -8.265625 5.0625 -8.265625 C 4.46875 -8.265625 3.910156 -8.125 3.390625 -7.84375 C 2.878906 -7.5625 2.429688 -7.191406 2.046875 -6.734375 C 1.671875 -6.273438 1.378906 -5.769531 1.171875 -5.21875 C 0.972656 -4.675781 0.878906 -4.140625 0.890625 -3.609375 C 0.910156 -2.953125 1.035156 -2.363281 1.265625 -1.84375 C 1.503906 -1.320312 1.84375 -0.910156 2.28125 -0.609375 C 2.71875 -0.304688 3.242188 -0.15625 3.859375 -0.15625 C 4.597656 -0.15625 5.226562 -0.328125 5.75 -0.671875 C 6.28125 -1.023438 6.695312 -1.5 7 -2.09375 L 7.34375 -1.984375 C 7.113281 -1.554688 6.828125 -1.179688 6.484375 -0.859375 C 6.148438 -0.535156 5.753906 -0.285156 5.296875 -0.109375 C 4.835938 0.0664062 4.320312 0.15625 3.75 0.15625 Z M 3.75 0.15625 "/></g></g></g></g></g></g></svg>