<svg width="500" height="201" viewBox="0 0 500 201" fill="none" xmlns="http://www.w3.org/2000/svg">
<path fill-rule="evenodd" clip-rule="evenodd" d="M43.9999 200.098H0V0.0979614H43.9999V14.0979H15.9691L16 186.098H43.9999V200.098ZM134.041 84.3841C130.38 72.1275 121.617 65.0978 109.999 65.0978C102.578 65.0978 96.2678 67.9506 91.7514 73.3482C86.68 79.4083 83.9995 88.6583 83.9995 100.098C83.9995 111.537 86.68 120.787 91.7514 126.847C96.2678 132.245 102.578 135.098 109.999 135.098C121.617 135.098 130.38 128.068 134.041 115.811L134.254 115.098H154.289L153.968 116.347C151.134 127.366 145.166 136.438 136.708 142.581C129.145 148.073 119.66 151.098 109.999 151.098C87.8444 151.098 63.9995 135.138 63.9995 100.098C63.9995 84.1091 69.0245 70.7873 78.5312 61.5732C86.8311 53.5283 98.0069 49.0979 109.999 49.0979C119.66 49.0979 129.145 52.1225 136.708 57.6146C145.166 63.7572 151.134 72.8291 153.968 83.8486L154.289 85.0978H134.254L134.041 84.3841ZM304.996 27.0979H286.996V51.0978H262.997V67.0978H286.996V142.098C286.996 145.957 290.137 149.098 293.996 149.098H332.996V133.098H305.996C305.445 133.098 304.996 132.649 304.996 132.098V67.0978H332.996V51.0978H304.996V27.0979ZM358.529 61.5732C366.829 53.5283 378.005 49.0979 389.997 49.0979C412.152 49.0979 435.997 65.0572 435.997 100.098C435.997 116.087 430.972 129.408 421.466 138.622C413.166 146.667 401.99 151.098 389.997 151.098C367.842 151.098 343.997 135.138 343.997 100.098C343.997 84.1091 349.022 70.7873 358.529 61.5732ZM389.997 65.0978C382.576 65.0978 376.266 67.9505 371.749 73.3482C366.678 79.4083 363.997 88.6583 363.997 100.098C363.997 111.537 366.678 120.787 371.749 126.847C376.266 132.245 382.576 135.098 389.997 135.098C397.419 135.098 403.729 132.245 408.245 126.847C413.317 120.787 415.997 111.537 415.997 100.098C415.997 88.6583 413.317 79.4083 408.245 73.3482C403.729 67.9505 397.419 65.0978 389.997 65.0978ZM247.998 132.098V88.0978C247.998 60.0326 237.344 49.0979 209.998 49.0979C186.736 49.0979 170.644 62.806 169.001 84.0204L168.918 85.0978H186.911L186.994 84.188C187.784 75.479 192.416 65.0978 209.998 65.0978C224.017 65.0978 229.998 70.7802 229.998 84.0978L229.997 89.19L199.902 92.1024C172.707 94.7337 166.998 109.866 166.998 122.098C166.998 129.592 169.891 136.723 175.144 142.179C180.543 147.764 189.727 151.098 199.71 151.098C207.266 151.098 213.869 149.496 219.337 146.339C225.003 143.066 229.152 138.277 231.677 132.098H232.998V142.098C232.998 145.958 236.138 149.098 239.998 149.098L262.998 149.098V133.097L248.998 133.098C248.447 133.098 247.998 132.649 247.998 132.098ZM229.997 103.193V108.098C229.997 118.196 225.165 124.499 221.112 128.009C215.909 132.514 208.837 135.098 201.71 135.098C192.202 135.098 185.485 129.848 184.996 122.035C184.602 115.738 186.345 107.161 205.946 105.379L229.997 103.193ZM456 14.0979V0.0979614H500V200.098H456V186.098H484.031L484 14.0979H456Z" fill="black"/>
</svg>
