<svg xmlns="http://www.w3.org/2000/svg" viewBox="0 0 556.01 51.34"><defs><style>.cls-1{fill:#404c0f;}</style></defs><g id="Layer_2" data-name="Layer 2"><g id="Layer_1-2" data-name="Layer 1"><path class="cls-1" d="M24.25,0h5.14L53.92,49.51H47.21l-6.7-13.32H13.14L6.61,49.51H0Zm13.5,30.4L26.82,8.45,16,30.4Z"/><path class="cls-1" d="M122.44,24.89c0,14.24-9.46,24.62-26,24.62H75.23V0H96.45C112.52,0,122.44,10.56,122.44,24.89ZM81.38,5.69V43.82H96.45c12.76,0,19.65-7.9,19.65-19S108.76,5.69,96.45,5.69Z"/><path class="cls-1" d="M162.16,0h5.15l24.52,49.51h-6.7l-6.71-13.32H151.05l-6.53,13.32h-6.61Zm13.51,30.4L164.73,8.45l-10.84,22Z"/><path class="cls-1" d="M212.86,0h5.7l20,30.31L258.7,0h5.6V49.51h-6.06V10.84l-19.66,29.3-19.65-29.3V49.51h-6.07Z"/><path class="cls-1" d="M300.84,17.33h1.76L311,34.27h-2.3l-2.29-4.56H297l-2.23,4.56h-2.27Zm4.62,10.4-3.74-7.51L298,27.73Z"/><path class="cls-1" d="M318.29,17.33h1.1l11,12.67V17.33h2.1V34.27h-1.06l-11-12.67V34.27h-2.1Z"/><path class="cls-1" d="M358.42,25.85c0,4.87-3.23,8.42-8.89,8.42h-7.26V17.33h7.26C355,17.33,358.42,20.94,358.42,25.85Zm-14.05-6.57v13h5.16c4.37,0,6.73-2.7,6.73-6.5s-2.52-6.54-6.73-6.54Z"/><path class="cls-1" d="M386.91,1.83h38.94V7.52H393.06V22H412.9v5.69H393.06V45.64h34.82v5.7h-41Z"/><path class="cls-1" d="M466.64,51.34,442.75,1.83h6.71l19.1,39.68L487.67,1.83h6.8l-24,49.51Z"/><path class="cls-1" d="M515,1.83h39V7.52h-32.8V22H541v5.69H521.19V45.64H556v5.7H515Z"/></g></g></svg>