<?xml version="1.0" encoding="utf-8"?>
<!-- Generator: Adobe Illustrator 27.7.0, SVG Export Plug-In . SVG Version: 6.00 Build 0)  -->
<svg version="1.1" id="Layer_2_00000085930884166258195100000004267488093107639435_"
	 xmlns="http://www.w3.org/2000/svg" xmlns:xlink="http://www.w3.org/1999/xlink" x="0px" y="0px" viewBox="0 0 388.1 199.4"
	 style="enable-background:new 0 0 388.1 199.4;" xml:space="preserve">
<style type="text/css">
	.st0{enable-background:new    ;}
</style>
<g id="Layer_1-2">
	<g class="st0">
		<path d="M8.2,156.6V36.9h40.7c11.6,0,19,3.3,24.6,8.4c6.2,5.6,9.9,13.9,9.9,22.8c0,8.2-3.8,16.1-9.4,21.4
			c11.3,5.6,19.7,18,19.7,31.5c0,11.1-5.1,21.2-13.2,27.7c-6.2,5.1-14,8-26.2,8H8.2z M45.9,83.9c9.6,0,13.7-1.9,16.4-5
			c2.6-2.7,4.1-6.3,4.1-10.4c0-4.1-1.5-7.7-4.1-10.4c-2.7-3.1-6.8-5-16.4-5H25.3v30.8H45.9z M51.3,140.4c10.8,0,15.9-2.4,19.7-6.2
			c3.4-3.6,5.6-8.6,5.6-14s-2.2-10.3-5.6-13.9c-3.8-3.8-8.9-6.2-19.7-6.2h-26v40.2H51.3z"/>
	</g>
	<g class="st0">
		<rect x="119.3" y="95" width="170.1" height="13.7"/>
	</g>
	<g class="st0">
		<path d="M297.7,36.9h82.1v16.3h-32.5v103.5h-17.1V53.1h-32.5V36.9z"/>
	</g>
</g>
</svg>
