<?xml version="1.0" encoding="UTF-8"?><svg id="Layer_2" xmlns="http://www.w3.org/2000/svg" viewBox="0 0 642.11 61.13"><g id="Layer_1-2"><g><g><path d="M32.68,26.91c2.8-2.63,4.67-6.54,4.67-10.61,0-4.42-1.87-8.49-4.92-11.29C29.63,2.46,25.98,.85,20.2,.85H0V60.28H22.92c6.03,0,9.93-1.45,12.99-3.99,3.99-3.23,6.54-8.24,6.54-13.76,0-6.7-4.16-12.82-9.77-15.62ZM8.49,8.91h10.18c4.76,0,6.8,.94,8.15,2.46,1.28,1.36,2.04,3.15,2.04,5.18s-.76,3.82-2.04,5.18c-1.35,1.53-3.39,2.46-8.15,2.46H8.49V8.91ZM31.15,49.15c-1.86,1.87-4.41,3.06-9.76,3.06H8.49v-19.95h12.9c5.35,0,7.9,1.19,9.76,3.06,1.7,1.78,2.81,4.16,2.81,6.87s-1.11,5.18-2.81,6.96Z"/><path d="M82.01,.85h-5.94l-24.62,59.43h8.83l6.19-15.29h25.05l6.28,15.29h8.83L82.01,.85Zm-12.14,36.08l9.17-22.07,9.17,22.07h-18.34Z"/><path d="M145.96,31.92c2.98-.51,5.1-1.61,6.97-3.14,3.56-2.89,5.85-7.3,5.85-12.23s-2.29-9.34-5.85-12.22c-2.72-2.21-6.12-3.48-11.55-3.48h-20.8V60.28h8.49v-28.02h6.79l21.14,28.02h10.27l-21.31-28.36Zm-16.89-7.73V8.91h11.89c3.82,0,5.77,.85,7.13,2.21,1.36,1.36,2.2,3.31,2.2,5.43s-.84,4.08-2.2,5.44c-1.36,1.35-3.31,2.2-7.13,2.2h-11.89Z"/><path d="M172.8,.85V8.91h16.13V60.28h8.49V8.91h16.13V.85h-40.75Z"/></g><path d="M282.92,48.14c2.12-3.91,3.31-8.41,3.31-13.16,0-2.73-.27-5.12-.62-7.07h-8.15c.37,1.73,.7,4.09,.7,7.07,0,2.54-.42,4.92-1.27,7.13l-14.86-14.86c4.5-3.48,8.41-7.56,8.41-13.92,0-8.07-6.62-13.33-13.42-13.33-8.15,0-13.66,6.2-13.66,13.33,0,4.67,2.8,8.49,6.53,12.39-5.35,3.99-10.36,8.92-10.36,17.24,0,11.12,9.17,18.17,20.89,18.17,7.3,0,13.41-2.64,17.83-6.8l6.03,5.95h10.86l-12.22-12.14Zm-25.9-40.5c2.98,0,5.35,2.55,5.35,5.69s-2.54,5.77-6.03,8.4c-2.37-2.46-4.92-5.6-4.92-8.4s2.04-5.69,5.6-5.69Zm3.4,45.84c-7.47,0-12.82-4.33-12.82-10.52,0-5.1,3.4-8.66,7.73-11.63l17.32,17.4c-3.06,2.97-7.31,4.75-12.23,4.75Z"/><g><path d="M312.47,.85V8.91h16.13V60.28h8.49V8.91h16.13V.85h-40.75Z"/><path d="M387.6,.85h-5.94l-24.62,59.43h8.83l6.2-15.29h25.04l6.28,15.29h8.83L387.6,.85Zm-12.14,36.08l9.17-22.07,9.17,22.07h-18.34Z"/><path d="M452.13,.85l-15.12,23.85L421.9,.85h-9.51l20.38,32.26v27.17h8.49v-27.17L461.64,.85h-9.51Z"/><path d="M484.13,52.21V.85h-8.49V60.28h34.81v-8.07h-26.32Z"/><path d="M548.49,0c-16.81,0-29.72,13.24-29.72,30.56s12.91,30.57,29.72,30.57,29.71-13.25,29.71-30.57-12.9-30.56-29.71-30.56Zm0,53.06c-12.14,0-21.23-9.59-21.23-22.5s9.09-22.5,21.23-22.5,21.22,9.68,21.22,22.5-9.08,22.5-21.22,22.5Z"/><path d="M620.8,31.92c2.97-.51,5.09-1.61,6.96-3.14,3.56-2.89,5.86-7.3,5.86-12.23s-2.3-9.34-5.86-12.22c-2.72-2.21-6.11-3.48-11.55-3.48h-20.8V60.28h8.49v-28.02h6.79l21.14,28.02h10.28l-21.31-28.36Zm-16.9-7.73V8.91h11.89c3.82,0,5.77,.85,7.13,2.21,1.36,1.36,2.21,3.31,2.21,5.43s-.85,4.08-2.21,5.44c-1.36,1.35-3.31,2.2-7.13,2.2h-11.89Z"/></g></g></g></svg>