<?xml version="1.0" encoding="UTF-8"?><svg xmlns="http://www.w3.org/2000/svg" viewBox="0 0 249.55 61.82"><g id="a"/><g id="b"><g id="c"><g><g><circle cx="65.29" cy="27.04" r="2.35" style="fill:#000000;"/><path d="M61.17,16.01c-1.18,2.79-2.79,5.44-4.85,7.79-1.91,2.06-3.46,3.16-4.63,3.16-.66,0-1.03-.44-1.03-1.25,0-1.1,.59-3.31,1.76-6.47,.88-2.65,2.06-5.29,3.46-7.72l-.81-1.1c-1.4,.15-2.79,.29-4.26,.29-.88,0-1.76-.07-2.65-.15l.29-3.24h-3.46l.59,5c-2.21,8.97-5.96,14.85-7.94,14.85-.66,0-1.25-.29-1.54-.88-.44-.74-.66-1.62-.59-2.5,0-3.68,2.06-11.47,6.18-23.23h-3.6l-14.48,24.63h-.15L26.32,.57h-3.46C15.51,18.81,8.01,27.92,.51,27.92H0c.07,1.03,.51,1.99,1.25,2.65,.81,.81,1.99,1.18,3.09,1.1,5.96,0,11.84-8.23,17.43-24.7h.07l-2.72,23.16h3.82L36.25,7.04h.07c-1.84,4.85-3.09,8.6-3.82,11.25-.74,2.21-1.1,4.56-1.18,6.84,0,3.46,1.25,5.22,3.68,5.22,1.32,0,2.65-.44,3.75-1.18,2.06-1.25,6.03-7.5,8.46-16.47,.81,.15,1.69,.22,2.57,.22,.66,0,1.4-.07,2.06-.15l.07,.07c-1.4,2.35-2.65,4.85-3.68,7.35-.96,2.06-1.54,4.26-1.69,6.47-.07,1.03,.29,2.06,.96,2.79,.59,.66,1.47,.96,2.35,.96,2.13,0,4.56-1.47,7.21-4.49,2.43-2.72,4.41-5.81,5.81-9.19l-1.69-.74Z" style="fill:#000000;"/></g><g><path d="M86.61,29.09L82.27,.88h35.95l1.89,11.9L94.67,3.59l-3.71,23.86,21.41-3.08,2.33,9.88-23.67-4.09,4.53,30.28h-13.28l4.34-31.35Z" style="fill:#000000;"/><path d="M131.19,30.22C131.19,12.84,144.16,.06,160.15,0c15.99-.06,28.83,12.72,28.83,30.22,0,18.89-12.84,31.67-29.02,31.6-15.93,0-28.77-12.78-28.77-31.6Zm47.41,0c0-15.3-8.5-27.01-20.84-27.76-9.7,4.16-16.18,15.93-16.18,27.76,0,16.62,8.31,28.52,20.52,29.53,9.88-4.97,16.49-16.94,16.49-29.53Z" style="fill:#000000;"/><path d="M220.33,30.6L196.66,.88h15.05l11.58,25.12L239.6,.88h5.85l-19.64,30.41,23.73,29.21h-15.05l-11.52-24.87-16.12,24.87h-5.79l19.26-29.9Z" style="fill:#000000;"/></g></g></g></g></svg>